<svg xmlns="http://www.w3.org/2000/svg" width="20" height="20"><path fill="#FFAB5C" fill-rule="nonzero" d="M19.318 10c0-1.3-.8-2.427-1.99-3.036.417-1.264.181-2.637-.737-3.555-.918-.918-2.291-1.154-3.555-.736C12.436 1.482 11.3.682 10 .682s-2.427.8-3.027 1.99c-1.273-.417-2.646-.181-3.564.737-.918.918-1.145 2.291-.727 3.555-1.191.609-2 1.736-2 3.036s.809 2.427 2 3.036c-.418 1.264-.191 2.637.727 3.555.918.918 2.291 1.145 3.555.736.609 1.191 1.736 1.991 3.036 1.991s2.436-.8 3.036-1.99c1.264.408 2.637.181 3.555-.737.918-.918 1.154-2.291.736-3.555 1.191-.609 1.991-1.736 1.991-3.036ZM8.673 13.818l-3.4-3.4 1.282-1.29 2.054 2.054 4.364-4.755 1.336 1.237-5.636 6.154Z"/></svg>