<svg width="20" height="20" xmlns="http://www.w3.org/2000/svg"><g fill="none" fill-rule="evenodd"><circle stroke="#FFAB5C" cx="10" cy="10" r="8.5"/><path d="M12.21 15.248V16a56.107 56.107 0 0 0-2.46-.049c-1.01 0-2.057.016-3.145.049v-.752c.508 0 .86-.036 1.055-.107a.374.374 0 0 0 .205-.166c.065-.124.101-.358.108-.704l.039-.869c.006-.182.01-.478.01-.888v-1.28c0-.58-.02-1.282-.06-2.109-.019-.417-.046-.653-.082-.708a.312.312 0 0 0-.171-.122c-.124-.046-.492-.078-1.104-.098v-.752c1.185-.202 1.963-.351 2.334-.449a7.919 7.919 0 0 0 1.26-.469l.264.118-.02 1.972c.424-.436.75-.797.977-1.084.338-.403.592-.66.762-.771.234-.157.543-.235.927-.235.241 0 .46.04.655.118l-.059 1.386a27.41 27.41 0 0 1-.049 1.3l-.41.126c-.163-.215-.319-.365-.469-.45a1.575 1.575 0 0 0-.79-.204c-.385 0-.715.119-.992.356-.277.238-.441.48-.493.728-.026.143-.04.693-.04 1.65v.977l.02 1.328c.007.501.025.809.054.923.03.114.096.203.2.268.104.065.33.11.674.137l.8.078Z" fill="#FFAB5C" fill-rule="nonzero"/><path stroke="#FFAB5C" d="M16 4 4 16"/></g></svg>