<svg xmlns="http://www.w3.org/2000/svg" width="169.414" height="195.784"><path d="M94.4 146.88c1.88-.017 2.347 2.646.454 3.135-1.431.807-3.145.145-4.455-.59-1.835-.421-3.443 1.921-1.7 3.184 1.23 1.425 3.158.846 4.74 1.289 1.89.525 3.67 1.637 4.808 3.25.674 1.895-1.685 2.934-3.134 2.042-1.8-.454-1.96 1.52-.708 2.323 1.394.776.855 2.192-.658 1.885-1.594-.005-3.103-.732-4.705-.635-.419 1.686 1.684 2.201 2.916 1.776 3.148.034 6.057 2.127 7.236 5.021.623 1.545 2.499 1.212 3.838 1.378 3.716.073 7.583-1.132 11.176.304 1.631 1.213 3.57-.346 4.227-1.888.745-.885.18-3.025-.92-1.5-.848 1.457-3.201 1.969-3.983.168-.734-.87.247-2.297.214-2.721-2.325-.644-4.876.366-7.113-.678-1.49-1.054 2.038-3.111-.292-3.553-1.39-.708-4.53-.484-4.407-2.53 1.19-1.194 2.654-2.158 4.053-3.127 2.467-1.49 5.564-2.712 6.7-5.591.724-1.527-1.06-2.454-2.354-2.197-2.73.393-4.93 2.811-7.815 2.454-1.732-.192-2.662-1.85-3.34-3.265-.695-1.88-3.153-2.204-4.267-.525a8.33 8.33 0 0 0-.51.591M97.92 132.628c-2.235.421-4.98.08-6.566 2.066-1.977 2.031-5.418.509-7.271 2.718-1.727 1.475-.458 4.712 1.928 3.789 4.196-1.018 6.839-5.383 11.317-5.673 2.844-.413 5.76-.198 8.57-.867 1.63.745 3.493-1.915 1.089-2.135-3.012-.167-6.069-.381-9.067.102zM56.32 91.2c4.264-1.008 8.585-1.84 12.813-2.958 2.255-1.004 4.481-2.097 6.961-2.401l4.673-.996c.41-1.736.412-3.646 1.742-4.99 1.105-3.088 3.435.762 3.188 2.628 1.01 3.74-4.087 3.445-4.44 5.966 3.684 3.07-1.983 5.307-2.217 7.551 2.039-1.286 4.908-.159 3.211 2.499-2.529 3.568 1.195 5.953 2.956 8.621.11 2.578-4.476 1.45-5.904 3.468-2.533 1.549-4.933 3.333-7.623 4.612.65.785.668 2.975 1.785 2.72 5.479-1.812 11.148-2.98 16.713-4.436 2.223-2.172 4.288-.168 6.351.608 1.95-2.819-3.826-4.379-2.99-7.005 4.049-2.419 6.6 2.707 9.53 4.492 2.462 1.044 5.526-.258 7.655 1.841 3.48 3.618-3.394 3.52-5.642 2.812-8.14.944-16.395 1.503-24.379 3.462-2.227 1.346-5.478.672-7.312 1.605 1.86 2.192 5.742 2.02 8.38 3.288 3.562 1.297 6.304-1.9 9.52-2.675 5.074-.547 10.31-.945 15.34.099 2.76 1.206 5.857 1.31 8.612.003 2.283-.713 5.254-2.712 1.898-4.255-2.792-3.158 2.75-3.503 4.407-1.78 4.118.094.594-5.59-2.287-3.51-3.678-1.866-5.837-6.443-10.266-6.857-2.228 2.339-6.017 2.311-8.302-.144-1.78-2.197.143-7.324-4.714-5.803-2.735.3-6.185 2.3-8.425-.18-1.05-3.54 1.592-6.918 1.845-10.437.188-3.23.337-6.463 1.107-9.608-.593-3.024-4.381-4.23-4.477-7.657-1.97-2.385-5.855-.909-8.096-3.303-3.193-2.308-7.037-.451-10.506-.119-5.505.312-10.204 4.022-13.139 8.484-2.254 2.401-.91 7.272 2.38 4.04 4.03-2.634 7.136-7.696 12.492-7.473 3.654.4 7.47-.242 10.97 1.103 3.764.57 2.331 5.27-1.004 3.189-4.184-1.385-8.667-.537-12.846.42-3.59.774-5.736 3.973-7.186 7.09-.901 2.002-2.666 3.694-2.774 5.986" style="fill:#000;stroke:none;stroke-width:.32;fill-opacity:1;stroke-opacity:1" transform="translate(-18.376 -17.115)"/><path d="M120 106.24c1.837-1.892-.916-3.793-2.597-4.425-3.387-1.465-7.344-2.306-9.782-5.305.401-3.049 4.23-1.07 5.666.106 2.556.359 2.592-3.156-.033-2.691-2.305-.558-4.68-1.64-5.877-3.803-2-2.503-4.464-4.622-6.376-7.185-1.413-2.727-.213-5.887.95-8.461 1.017-2.296 3.463-3.164 5.792-3.274 2.389-.282 4.822-.611 7.003-1.678 2.981-.737 6.013.64 8.497 2.175 2.006 1.206 1.361 4.894-1.293 3.906-2.166-.547-4.029-2.35-6.397-1.947-3.326-.003-6.78.636-9.565 2.547-2.08 2.273.421 5.297 3.022 5.02 1.903 1.236 3.43 3.178 5.78 3.62 1.998.363 3.892 1.623 5.984 1.063 1.774-.333 3.776-.914 5.403.2 1.816.786 4.747-.092 4.526-2.443.49-2.554-4.526-3.253-2.624-5.791 1.718-.282 4.578.7 4.39-2.24.208-3.238-2.396-5.738-5.086-7.071-1.677-.815-3.081-2.028-4.504-3.2-2.147-1.466-4.691-2.796-7.351-2.635-7.49 1.315-14.449 5.531-18.962 11.67-2.09 1.794-3.093 5.054-1.647 7.543.473 2.33-1.46 4.959.277 7.03 2.89 2.531 4.3 6.831 8.249 8.049 2.64 1.17 3.828 4.526 6.909 4.912 2.912.629 6.276.602 8.48 2.929.444.408.841.87 1.167 1.379M138.56 57.28c-2.82.876-.072 6.091-3.943 5.782-1.89 1.022-2.062 3.84-1.476 5.68 1.421 3.48 5.898 5.261 6.026 9.342-.488 2.25.31 4.456 1.474 6.347 1.158 3.287.116 7.261 2.354 10.173 1.728 2.172 3.266-.585 2.807-2.346-.053-4.523-1.809-8.77-3.228-12.983-.402-2.75 1.122-5.613-.192-8.26-1.53-4.502-2.726-9.11-3.822-13.735zM45.022 108.64c-.371 8.789-1.054 17.823 1.587 26.356 7.614 5.646 14.16 16.355 9.306 25.744-5.267 6.275-5.539 14.717-8.505 22.02-2.637 7.415-11.987 7.589-16.783 13.175-2.53 3.255-3.98 3.959-7.616 2.542-4.144.692-7.427 13.5-1.222 10.79-2.142-4.23 3.523-9.837 3.971-2.803-.465 9.35 15.687 7.093 10.522-1.897.096-5.927 3.413-18.758 11.163-11.924 4.224 6.642-6.404 10.395-5.961 16.768 4.265 6.426 15.01 1.58 21.876 3.069-7.403-4.34 8.022-11.328 4.96-4.538-5.356 4.91 8.01 6.428 11.207 3.693 3.533-7.875-10.304-6.715-13.334-11.627 2.745-1.044 7.208-1.24 2.987-5.046-.23-5.174-4.154-6.453-8.453-4.342-5.847-2.42-9.474-7.306-4.503-12.414 4.672-3.06 5.396-7.511 3.18-12.401-.676-7.801 2.803-16.27-1.606-23.487-2.907-6.585-1.956-17.568-4.311-22.026-1.13 3.36-5.674 9.14-6.387 2.016-3.041-7.342 5.544-10.457 10.023-12.171 2.701-5.278 4.509-11.912 10.343-14.63-6.5-4.076-8.956 7.314-13.667 10.123-4.468 4.747-10.876-1.02-5.559-5.62 2.808-5.618-2.276-11.15.25-17.473.613-5.498 1.534-11.113.428-16.611-6.278 2.61-3.93 11.398-4.2 16.901-.677 5.422 3.388 14.117-1.454 17.534-3.86-4.35-3.346-10.978-5.319-16.316-2.142-5.757.346-11.663.074-17.24.841-7.902-2.2-16.899 1.922-23.885 1.908-2.532 8.061-11.023 1.055-6.601-9.522 7.252-9.598 20.698-8.29 31.535 1.242 6.899 1.389 13.85 1.404 20.803.296 1.608 1.017 3.117 1.984 4.428" style="fill:#000;stroke:none;stroke-width:.32;fill-opacity:1;stroke-opacity:1" transform="translate(-18.376 -17.115)"/><path d="M63.04 27.2c-.419-.7-.812-1.424-1.63-1.722-1.232-.45-2.302.475-3.49.578-1.966.17-5.752-2.01-7.332.379-1.283 1.938 5.089.307 4.341 2.988-.603 2.164-4.234.884-5.306 2.449-1.243 1.813 2.985 2.394 1.685 4.155-.867 1.175-5.24.987-4.889 2.95.195 1.086 2.012.71 2.77.99 3.695 1.356 4.082-2.46 6.816-4.39.679-.478 2.76-2.192 3.446-.903.6 1.13-1.091 2.368-1.688 3.098-1.846 2.259-3.983 4.949-5.08 7.668-.313.774-1.09 3.825.707 3.545 1.324-.206 2.223-3.782 2.871-4.825 1.324-2.132 3.465-6.573 5.313-8.127 1.063-.893 2.672-.416 3.799-1.316 1.057-.845 5.218-1.741 4.495-3.57-.406-1.028-1.929-.266-2.668-.175-1.228.151-5.688-.461-6.508-1.403-1.187-1.362 1.491-2.163 2.348-2.369M130.24 46.72c7.289-7.54 17.127 2.248 18.912 9.899 1.552 4.715 4.533 14.904 2.43 16.795-5.168-3.474-4.856-14.628-9.877-15.622.664 7.136 5.279 13.527 7.392 20.403 5.577 8.587-2.556 15.513-5.05 23.173-3.348 7.936 4.475 16.003-.396 23.48-4.975 4.626-.321-7.296-3.391-9.53-4.564-4.86-.543 8.057-2.316 10.39.524 7.102-7.883 10.99-8.293 16.66 6.645-4.182 10.518 1.334 9.03 7.829-.413 8.449-1.727 16.943-.54 25.351-2.14 6.67-3.494 14.051 2.258 18.936 1.026 5.708-12.773 9.182-7.145 2.267 4.715-3.26-.054-5.91-1.557-1.024-3.896 6.385-14.042 6.173-16.475 13.584 1.452 6.676 12.859 1.563 18.418 3.188 16.68-.055 33.36-.005 50.04-.019-.137-3.424 7.362-4.2 1.16-7.54-7.269-8.514-19.19-11.073-26.374-19.713-7.734-6.73-9.284-17.64-15.787-25.283-3.096-9.235-.139-19.097 3.513-27.707 7.38-3.833 11.116-11.584 9.863-19.622 1.39-9.125 2.548-18.41 1.257-27.61-.095-13.825-.98-29.636-11.414-39.928-6.976-4.648-13.126-10.245-18.223-16.891-6.125-6.588-15.112-9.185-23.626-10.87-5.516-2.222-11.974 5.478-3.76 6.54 10.48 4.522 22.705 7.97 29.42 17.93.752 1.506 1.048 3.301.531 4.934z" style="fill:#000;stroke:none;stroke-width:.32;fill-opacity:1;stroke-opacity:1" transform="translate(-18.376 -17.115)"/></svg>