<?xml version="1.0" encoding="UTF-8" standalone="no"?>
<!-- Created with Inkscape (http://www.inkscape.org/) -->

<svg
   width="165.20479mm"
   height="165.20479mm"
   viewBox="0 0 165.20479 165.20479"
   version="1.1"
   id="svg1"
   xmlns="http://www.w3.org/2000/svg"
   xmlns:svg="http://www.w3.org/2000/svg">
  <defs
     id="defs1" />
  <g
     id="layer1"
     transform="translate(-93.662582,-90.487495)">
    <g
       id="g4"
       transform="matrix(0.95400798,0.08066238,-0.08066238,0.95400798,21.77215,-6.2521684)">
      <path
         style="fill:#8c51f4;fill-opacity:1;stroke:none;stroke-width:1.02252;stroke-linecap:butt;stroke-linejoin:miter;stroke-dasharray:none;stroke-opacity:1"
         d="m 164.36927,164.36811 c -0.69196,2.29216 -5.14115,10.06722 -3.4115,12.12649 l 22.36533,26.62531 6.27353,-22.42199 c -2.54239,-1.5663 -2.87926,-8.88727 -3.34297,-12.60547 1.52308,-3.50451 2.00576,-6.98031 2.98263,-11.27036 2.20971,-9.70534 6.38599,-22.87308 4.57689,-33.29786 -1.25349,-7.22256 -0.75768,-10.16192 -6.09336,-23.46658 -1.04543,-2.607108 -4.15035,-4.541112 -7.18393,-3.368869 -10.19261,4.358619 -14.53261,9.558449 -19.32001,16.907179 -4.60305,7.06568 -5.76077,14.9323 -4.77504,23.79039 0.50477,4.53482 4.36447,11.68483 5.78446,16.17613 1.28055,4.04983 3.28131,7.03873 2.14397,10.80563 z"
         id="path307" />
      <path
         style="fill:#5239ec;stroke-width:0.438625px"
         d="m 160.84653,164.25272 c 0.0772,-0.13847 0.19302,-0.37424 0.44739,-0.8278 0.73752,-1.31503 2.37176,-4.24899 3.45177,-8.29016 0.8279,-3.09779 1.14792,-6.11386 1.17815,-9.10075 0.0136,-1.29951 -0.0291,-2.48704 -0.0793,-3.51667 -0.23426,-4.81341 -1.66017,-10.1481 -1.48995,-12.9 0.079,-1.27804 -0.0786,-2.50983 0.85113,-2.88686 0.85597,-0.34713 1.56349,0.49372 2.41358,1.36138 1.87392,1.91271 4.02614,7.03668 5.45608,12.36713 0.2979,1.11051 0.59527,2.44968 0.82632,3.95527 0.52816,3.44162 0.64407,7.30296 0.0122,11.43541 -0.83378,5.45359 -2.73378,9.64492 -3.61756,11.42605 -0.29187,0.58823 -0.51506,0.95778 -0.59855,1.1075 -3.52527,6.29903 -12.35562,2.17832 -8.85134,-4.13049 z"
         id="path1" />
      <path
         style="fill:#5239ec;stroke-width:0.358051px"
         d="m 167.63923,165.94958 c -0.078,-0.0541 -0.18636,-0.15372 -0.46094,-0.32933 -0.61777,-0.39522 -2.24466,-1.35204 -3.97441,-2.97904 -1.79188,-1.68547 -3.20766,-3.62248 -4.25947,-5.76106 -0.55071,-1.1197 -0.92818,-2.14449 -1.20371,-2.99859 -0.91386,-2.83275 -0.66821,-6.17257 -1.17546,-7.45241 -0.20564,-0.5188 -0.44295,-0.93811 -0.87865,-0.97356 -0.65712,-0.0535 -1.02616,0.61233 -1.5451,1.23473 -1.41486,1.69693 -2.27898,5.05714 -2.55536,8.66978 -0.0786,1.02725 -0.0892,2.28278 0.0655,3.67345 0.29414,2.64349 1.12095,5.21359 2.5179,7.54325 1.35809,2.26625 2.94657,3.76062 3.63046,4.32516 0.29288,0.24178 0.50356,0.36172 0.59112,0.42232 3.98909,2.7497 13.21911,-2.61449 9.2481,-5.3747 z"
         id="path2" />
      <path
         style="fill:#8c51f4;fill-opacity:1;stroke:none;stroke-width:1.26394;stroke-linecap:butt;stroke-linejoin:miter;stroke-dasharray:none;stroke-opacity:1"
         d="m 211.34372,180.95181 c -1.32453,2.95223 -2.89513,6.30928 -1.79622,9.40511 5.91922,16.67386 3.9261,22.62992 -1.00196,30.95503 -6.18774,9.19911 -19.4736,16.14003 -30.06817,19.31113 -4.607,1.37894 -13.13312,1.93769 -16.16303,1.25384 -1.38398,-0.16541 -2.82474,0.19367 -3.48548,1.01001 -6.0088,7.424 -10.30971,9.61958 -15.60479,8.87246 -12.34739,-1.74226 -21.46711,-18.91966 -21.35876,-19.90562 -2.36864,-3.77845 2.46197,-18.33271 7.33845,-25.79892 5.94383,-10.51985 10.89928,-22.90064 19.5263,-31.94467 8.91902,-7.93882 24.26393,-15.68664 33.68318,-11.69859 3.38881,0.67426 4.3102,-0.47766 7.74991,-3.87131 1.64482,-4.92495 4.06854,-8.9647 6.73084,-14.31121 6.02309,-12.09539 14.46669,-23.34172 24.75942,-32.09591 7.13108,-6.06516 10.297,-9.73522 27.32326,-16.342605 3.33635,-1.294744 4.57859,-0.609658 5.91044,3.028124 4.06609,12.568181 3.116,21.435371 1.01285,33.230111 -2.0221,11.34042 -7.45006,20.54634 -15.53819,28.74854 -4.14061,4.19905 -13.36856,7.85046 -18.26119,11.1428 -4.41168,2.96872 -8.58015,4.16008 -10.75684,9.01173 z"
         id="path310" />
      <path
         id="path311"
         style="fill:#000000;fill-opacity:1;stroke-width:1.10134;stroke-linecap:round;stroke-linejoin:round"
         d="m 168.81551,198.70179 c 1.03252,3.24833 6.28888,3.57724 9.6723,1.81309 3.3833,-1.76414 6.54686,-6.48336 5.51434,-9.73169 -1.03238,-3.24833 -6.75042,-3.80181 -10.13384,-2.03765 -3.3833,1.76413 -6.08519,6.70788 -5.0528,9.95625 z" />
      <path
         style="fill:#000000;fill-opacity:1;fill-rule:nonzero;stroke:none;stroke-width:2.16;stroke-linecap:butt;stroke-linejoin:miter;stroke-opacity:1"
         d="m 381.44863,31.453785 c 0.59764,0.293906 2.33213,1.320624 3.56786,1.885302 -10e-6,-2e-6 0.009,0.0039 0.009,0.0039 1.27329,0.58137 2.6191,1.086456 3.9002,1.196479 a 1.0911896,0.95516184 24.896057 0 0 0.75125,-0.219695 c 0.50455,-0.419039 0.78495,-0.922075 1.09023,-1.523406 0.13702,-0.269888 0.28112,-0.606709 0.40645,-1.00804 0.36711,-1.175473 0.38789,-2.321 0.37873,-3.003388 -0.23496,0.689015 -0.65018,1.646233 -1.36489,2.477151 -0.23293,0.270807 -0.45155,0.475609 -0.6313,0.630999 -0.29081,0.251394 -0.52779,0.38489 -0.77559,0.536578 -0.9686,-0.119404 -2.18182,-0.276477 -3.32573,-0.47171 0,-1e-6 -0.009,-0.0016 -0.009,-0.0016 -1.66073,-0.283611 -2.97915,-0.407991 -3.99676,-0.502663 z"
         id="path312"
         transform="matrix(-1.3893297,0.45262674,0.45262674,1.3893297,654.49441,11.870484)" />
      <g
         id="g315"
         transform="matrix(-1.4477803,0.4227665,0.4227665,1.4477803,-62.31218,465.24508)">
        <path
           style="fill:#e6e6fa;fill-opacity:1;fill-rule:nonzero;stroke:none;stroke-width:2.16;stroke-linecap:butt;stroke-linejoin:miter;stroke-opacity:1"
           d="m 381.44863,31.453785 c 0.60332,0.257485 2.56094,1.203537 3.61316,1.619317 -4.8e-4,-1.9e-4 0.0342,0.0135 0.0337,0.01331 0.76769,0.303049 1.42002,0.548771 2.06463,0.666858 0.55359,0.101413 1.19048,0.194632 1.51717,0.07342 0.17925,-0.0665 0.29562,-0.266243 0.35367,-0.320257 -0.0388,-0.069 -0.0872,-0.294376 -0.2272,-0.415418 -0.2397,-0.207223 -0.86028,-0.373825 -1.35998,-0.523414 -0.60131,-0.180003 -1.26015,-0.292425 -2.05968,-0.454082 2e-4,3.9e-5 -0.0352,-0.0071 -0.035,-0.0071 -1.35476,-0.274959 -2.9902,-0.518384 -3.90048,-0.652648 z"
           id="path313"
           transform="matrix(-1.7219309,0.43334644,0.4453001,1.7694296,497.45024,-347.33766)" />
        <path
           style="fill:#e6e6fa;fill-opacity:1;fill-rule:nonzero;stroke:none;stroke-width:2.16;stroke-linecap:butt;stroke-linejoin:miter;stroke-opacity:1"
           d="m 381.44863,31.453785 c 0.61113,0.233585 2.65994,1.091228 3.6895,1.488866 0.0395,0.01526 0.0774,0.02982 0.11379,0.04367 0.59465,0.226703 1.00018,0.397098 1.50584,0.526108 0.55908,0.142639 1.26296,0.323658 1.69269,0.259698 0.25703,-0.03825 0.48348,-0.218982 0.58051,-0.265694 -0.0767,-0.07253 -0.23534,-0.317009 -0.45054,-0.440968 -0.33045,-0.190346 -1.07816,-0.338231 -1.5893,-0.468428 -0.50846,-0.129512 -0.89763,-0.181114 -1.53171,-0.31491 -0.007,-0.0015 -0.11101,-0.02338 -0.11795,-0.02485 -1.06883,-0.224877 -3.24972,-0.683324 -3.89283,-0.803498 z"
           id="path314"
           transform="matrix(-1.15748,0.09321164,-0.13007854,-1.6152841,296.88433,-90.340141)" />
        <path
           style="fill:#e6e6fa;fill-opacity:1;fill-rule:nonzero;stroke:none;stroke-width:2.16;stroke-linecap:butt;stroke-linejoin:miter;stroke-opacity:1"
           d="m 381.44863,31.453785 c 1.05073,0.485987 2.56082,1.26564 3.61155,1.751627 0.067,0.03106 0.13049,0.06022 0.19036,0.0874 0.67063,0.304528 1.13087,0.613522 1.72242,0.708674 0.60881,0.09793 1.45777,0.03938 1.78953,-0.148049 0.1573,-0.08886 0.22483,-0.289368 0.26847,-0.347004 -0.0243,-0.06878 -0.0268,-0.278584 -0.14137,-0.413165 -0.21766,-0.25577 -0.97774,-0.657612 -1.49286,-0.830447 -0.53971,-0.181085 -1.05194,-0.13709 -1.77399,-0.239589 -0.0148,-0.0021 -0.18851,-0.02661 -0.20333,-0.02871 -1.16022,-0.16334 -3.31663,-0.464115 -3.97078,-0.540736 z"
           id="path315"
           transform="matrix(-1.4798999,-0.14761148,-0.39540416,0.93430253,432.17796,-87.545998)" />
      </g>
      <g
         id="g318"
         transform="matrix(1.5072289,-0.05531761,0.05531761,1.5072289,396.39273,396.56856)">
        <path
           style="fill:#e6e6fa;fill-opacity:1;fill-rule:nonzero;stroke:none;stroke-width:2.16;stroke-linecap:butt;stroke-linejoin:miter;stroke-opacity:1"
           d="m 381.44863,31.453785 c 0.60332,0.257485 2.56094,1.203537 3.61316,1.619317 -4.8e-4,-1.9e-4 0.0342,0.0135 0.0337,0.01331 0.76769,0.303049 1.42002,0.548771 2.06463,0.666858 0.55359,0.101413 1.19048,0.194632 1.51717,0.07342 0.17925,-0.0665 0.29562,-0.266243 0.35367,-0.320257 -0.0388,-0.069 -0.0872,-0.294376 -0.2272,-0.415418 -0.2397,-0.207223 -0.86028,-0.373825 -1.35998,-0.523414 -0.60131,-0.180003 -1.26015,-0.292425 -2.05968,-0.454082 2e-4,3.9e-5 -0.0352,-0.0071 -0.035,-0.0071 -1.35476,-0.274959 -2.9902,-0.518384 -3.90048,-0.652648 z"
           id="path316"
           transform="matrix(-1.7219309,0.43334644,0.4453001,1.7694296,497.45024,-347.33766)" />
        <path
           style="fill:#e6e6fa;fill-opacity:1;fill-rule:nonzero;stroke:none;stroke-width:2.16;stroke-linecap:butt;stroke-linejoin:miter;stroke-opacity:1"
           d="m 381.44863,31.453785 c 0.61113,0.233585 2.65994,1.091228 3.6895,1.488866 0.0395,0.01526 0.0774,0.02982 0.11379,0.04367 0.59465,0.226703 1.00018,0.397098 1.50584,0.526108 0.55908,0.142639 1.26296,0.323658 1.69269,0.259698 0.25703,-0.03825 0.48348,-0.218982 0.58051,-0.265694 -0.0767,-0.07253 -0.23534,-0.317009 -0.45054,-0.440968 -0.33045,-0.190346 -1.07816,-0.338231 -1.5893,-0.468428 -0.50846,-0.129512 -0.89763,-0.181114 -1.53171,-0.31491 -0.007,-0.0015 -0.11101,-0.02338 -0.11795,-0.02485 -1.06883,-0.224877 -3.24972,-0.683324 -3.89283,-0.803498 z"
           id="path317"
           transform="matrix(-1.15748,0.09321164,-0.13007854,-1.6152841,296.88433,-90.340141)" />
        <path
           style="fill:#e6e6fa;fill-opacity:1;fill-rule:nonzero;stroke:none;stroke-width:2.16;stroke-linecap:butt;stroke-linejoin:miter;stroke-opacity:1"
           d="m 381.44863,31.453785 c 1.05073,0.485987 2.56082,1.26564 3.61155,1.751627 0.067,0.03106 0.13049,0.06022 0.19036,0.0874 0.67063,0.304528 1.13087,0.613522 1.72242,0.708674 0.60881,0.09793 1.45777,0.03938 1.78953,-0.148049 0.1573,-0.08886 0.22483,-0.289368 0.26847,-0.347004 -0.0243,-0.06878 -0.0268,-0.278584 -0.14137,-0.413165 -0.21766,-0.25577 -0.97774,-0.657612 -1.49286,-0.830447 -0.53971,-0.181085 -1.05194,-0.13709 -1.77399,-0.239589 -0.0148,-0.0021 -0.18851,-0.02661 -0.20333,-0.02871 -1.16022,-0.16334 -3.31663,-0.464115 -3.97078,-0.540736 z"
           id="path318"
           transform="matrix(-1.4798999,-0.14761148,-0.39540416,0.93430253,432.17796,-87.545998)" />
      </g>
      <path
         style="fill:#bc5ece;fill-opacity:1;stroke:none;stroke-width:0.357049px;stroke-linecap:butt;stroke-linejoin:miter;stroke-opacity:1"
         d="m 214.60737,169.51154 c 13.53084,-15.02332 27.21261,-38.65315 37.84392,-55.41381 -1.88008,13.62629 -4.17163,27.60801 -16.5998,42.20558 -5.21288,6.12284 -14.23115,10.18458 -21.24412,13.20823 z"
         id="path319" />
      <path
         style="fill:#5239ec;stroke-width:0.434029px"
         d="m 181.97092,168.0982 c 0.19276,-0.32463 0.30345,-0.53614 0.49622,-0.86079 0.82323,-1.38283 2.59269,-4.38691 3.83009,-8.52864 0.94407,-3.15991 1.36604,-6.22471 1.51493,-9.25336 0.0647,-1.31583 0.0734,-2.52514 0.0702,-3.56632 -0.0146,-4.87843 -1.04179,-10.33422 -0.62202,-13.05346 0.19544,-1.26599 0.15574,-2.48807 1.10948,-2.76447 0.85966,-0.24913 1.44769,0.65166 2.17762,1.57095 1.56487,1.97088 3.33327,7.26418 4.46817,12.60659 0.23889,1.12457 0.47185,2.48601 0.6361,4.01159 0.37571,3.4898 0.35006,7.41693 -0.44147,11.62476 -1.04724,5.56722 -3.12618,9.82114 -4.10096,11.65187 -0.31952,0.60009 -0.56085,0.97754 -0.6513,1.12988 -2.08403,3.50973 -4.76631,3.00349 -7.04796,2.94858 -1.89121,-0.0455 -3.29156,-7.30446 -1.43908,-7.51717 z"
         id="path3" />
      <path
         style="fill:#5239ec;stroke-width:0.362591px"
         d="m 189.77509,169.71319 c -0.0684,-0.0606 0.71424,-0.25683 0.46928,-0.45383 -0.57028,-0.45855 -1.99915,-1.50425 -3.61457,-3.21965 -1.66212,-1.76501 -3.02426,-3.7048 -4.17428,-5.81031 -0.59903,-1.09669 -1.0651,-2.0995 -1.43023,-2.92115 -1.21635,-2.73719 -1.70852,-5.94115 -2.6274,-7.07126 -0.37337,-0.4592 -0.76061,-0.84241 -1.24814,-0.78298 -0.60517,0.0737 -0.89893,0.68996 -1.27049,1.31558 -0.96444,1.62395 -1.15312,4.90631 -1.13169,8.26401 0.006,0.97051 0.0721,2.17057 0.25635,3.49435 0.35105,2.52244 1.06181,5.00892 2.19946,7.31812 1.10709,2.24859 2.37058,3.795 2.93041,4.38905 0.24047,0.25507 0.41658,0.38056 0.49127,0.44671 3.45459,3.0602 12.60462,-1.90844 9.15003,-4.96864 z"
         id="path4" />
    </g>
  </g>
</svg>
