<svg xmlns="http://www.w3.org/2000/svg" xml:space="preserve" width="48" height="48"><path d="M12 25c0 8-6 20-6 35 0 10 15 10 18 10s18 0 18-10c0-15-6-27-6-35Z" style="display:inline;fill:#c9406f;fill-opacity:1;stroke:#000;stroke-width:2;paint-order:markers stroke fill"/><path d="M12 25c0 8-6 20-6 35 0 1.568.369 2.89 1.003 4.006C7 49 16 35.009 16 25ZM36 25c0 8 6 20 6 35 0 1.568-.369 2.89-1.003 4.006C41 49 32 35.138 32 25Z" style="display:inline;fill:#db517e;fill-opacity:1;stroke:none;stroke-width:2;paint-order:markers stroke fill"/><path d="M20 39v2c-2 2-4.943 5.982-5 11h18c0-5-3-9-5-11v-2" style="fill:#26232a;fill-opacity:1;stroke:#030303;stroke-width:2;stroke-linecap:butt;stroke-dasharray:none;stroke-opacity:1;paint-order:markers stroke fill" transform="translate(0 -4)"/><path d="M29.8 43.1c-1.221.935-3.8 2.4-5.8 2.4-1.975 0-4.579-1.465-5.8-2.4M19.643 41.368C20.29 41.97 22 42.5 24 42.5s3.71-.53 4.357-1.132" style="fill:none;fill-opacity:1;stroke:#201d24;stroke-width:.999999;stroke-linecap:butt;stroke-dasharray:none;stroke-opacity:1;paint-order:markers stroke fill" transform="translate(0 -4)"/><path d="M9 52v-2c0-1 1.072-8.012 9-8-1.007 3.151-1 4.033-1 5-2 0-3 4-3 6z" style="fill:#1f1a25;fill-opacity:1;stroke:#000;stroke-width:2;stroke-linecap:butt;stroke-dasharray:none;stroke-opacity:1;paint-order:markers stroke fill" transform="translate(0 -4)"/><path d="M9 52v-2c.709-1.878 6-3 8-3-2 0-3 4-3 6z" style="fill:#19141f;fill-opacity:1;stroke:none;stroke-width:2;stroke-linecap:butt;stroke-dasharray:none;stroke-opacity:1;paint-order:markers stroke fill" transform="translate(0 -4)"/><path d="M39 52v-2c0-1-1.072-8.012-9-8 1.007 3.151 1 4.033 1 5 2 0 3 4 3 6z" style="fill:#1f1a25;fill-opacity:1;stroke:#000;stroke-width:2;stroke-linecap:butt;stroke-dasharray:none;stroke-opacity:1;paint-order:markers stroke fill" transform="translate(0 -4)"/><path d="M39 52v-2c-.709-1.878-6-3-8-3 2 0 3 4 3 6z" style="fill:#19141f;fill-opacity:1;stroke:none;stroke-width:2;stroke-linecap:butt;stroke-dasharray:none;stroke-opacity:1;paint-order:markers stroke fill" transform="translate(0 -4)"/><path d="M18 45c-2 0-4 3-4 6s1 3 4 3 4.934-.947 6-2c1.066 1.053 3 2 6 2s4 0 4-3-2-6-4-6c-2.09.004-4 2.954-6 3-1.967.045-3.91-2.995-6-3z" style="fill:#2a2332;fill-opacity:1;stroke:#000;stroke-width:2;stroke-linecap:butt;stroke-dasharray:none;stroke-opacity:1;paint-order:markers stroke fill" transform="translate(0 -4)"/><path d="M18 54c-3 0-4 0-4-3 1.146.695 3 1 5 1s3.978-2.02 5-2c1.032-.004 3 2 5 2s3.854-.305 5-1c0 3-1 3-4 3s-4.934-.947-6-2c-1.066 1.053-3 2-6 2" style="fill:#1f1a25;fill-opacity:1;stroke:none;stroke-width:2;stroke-linecap:butt;stroke-dasharray:none;stroke-opacity:1;paint-order:markers stroke fill" transform="translate(0 -4)"/><g style="display:inline" transform="translate(0 3)"><path d="M18 33v2s2 1 6 1 6-1 6-1v-2s-1.97 1-5.985 1S18 33 18 33Z" style="fill:#ea4380;fill-opacity:1;stroke:#000;stroke-width:2;stroke-linecap:square;stroke-linejoin:round;stroke-opacity:1;paint-order:markers stroke fill"/><path d="M26 33.25c2.218 0 2.5 3.265-1 3.25" style="fill:#d72e71;fill-opacity:1;stroke:#000;stroke-width:1;stroke-linecap:round;stroke-linejoin:miter;stroke-dasharray:none;stroke-dashoffset:0;stroke-opacity:1;paint-order:normal"/><path d="M24 34s.25.529.25 1-.25 1-.25 1h1s.25-.529.25-1-.25-1-.25-1z" style="fill:#a1a1a1;fill-opacity:1;stroke:#000;stroke-width:2;stroke-linecap:butt;stroke-linejoin:round;stroke-dasharray:none;stroke-opacity:1;paint-order:markers stroke fill"/><circle cx="24" cy="38" r="1.5" style="fill:#a1a1a1;fill-opacity:1;stroke:#000;stroke-width:1;stroke-linecap:round;stroke-linejoin:miter;stroke-dasharray:none;stroke-dashoffset:0;stroke-opacity:1;paint-order:normal"/></g><g style="display:inline;mix-blend-mode:normal" transform="translate(0 3)"><path d="M35.013 17c.026-1.007 4-3 4-7-.012-4.022-2-4-4-4-5 0-6 4-7 4" style="mix-blend-mode:normal;fill:#1f1a25;fill-opacity:1;stroke:#000;stroke-width:2;stroke-linecap:butt;stroke-linejoin:miter;stroke-dasharray:none;stroke-opacity:1;paint-order:markers stroke fill"/><path d="M13 17c-.026-1.007-4-3-4-7 0-3 2-4 4-4 5 0 6 4 7 4" style="mix-blend-mode:normal;fill:none;fill-opacity:1;stroke:#000;stroke-width:2;stroke-linecap:butt;stroke-linejoin:miter;stroke-dasharray:none;stroke-opacity:1;paint-order:markers stroke fill"/><circle cx="24" cy="21" r="12" style="fill:#1f1a25;fill-opacity:1;stroke:#000;stroke-width:2;stroke-linecap:square;stroke-dasharray:none;stroke-opacity:1;paint-order:markers stroke fill"/><path d="M13 17c.008-1.002-4-3-4-7 .039-2.875 2-4 4-4 5 0 6 4 7 4" style="mix-blend-mode:normal;fill:#1f1a25;fill-opacity:1;stroke:none;stroke-width:2;stroke-linecap:butt;stroke-linejoin:miter;stroke-dasharray:none;stroke-opacity:1;paint-order:markers stroke fill"/><path d="M18 15c-3 0-4 2-4 5 0 1 0 3 3 3 6 0 4-2 7-2s1 2 7 2c3 0 3-2 3-3 0-3-1-5-4-5z" style="fill:#012f2a;fill-opacity:1;stroke:#000;stroke-width:2;stroke-linecap:square;stroke-dasharray:none;stroke-opacity:1;paint-order:markers stroke fill"/><path d="M12 7.5c3 0 3 1.5 3.5 2.5s1 1 1 2" style="fill:none;fill-opacity:1;stroke:#000;stroke-width:1;stroke-linecap:butt;stroke-linejoin:miter;stroke-dasharray:none;stroke-opacity:1;paint-order:markers stroke fill"/><path d="M18 18v4h2c1 0 1-1 1-1v-3z" style="fill:#5fb06c;fill-opacity:1;stroke:none;stroke-width:2;stroke-linecap:butt;stroke-dasharray:none;stroke-opacity:1;paint-order:markers stroke fill"/><path d="M14 14c-2 0-4-3-4-5 0-1 1-2 2-2 3 0 3 5 5 5 0 1-1 2-3 2" style="fill:#d4b6f2;fill-opacity:1;stroke:none;stroke-width:2;stroke-linecap:butt;stroke-linejoin:miter;stroke-dasharray:none;stroke-opacity:1;paint-order:markers stroke fill"/><path d="M21 16.5h-3q-1.5 0-1.5 1.5v4" style="fill:none;fill-opacity:1;stroke:#5fb06c;stroke-width:.999954;stroke-linecap:butt;stroke-dasharray:none;stroke-opacity:1;paint-order:markers stroke fill"/><path d="M26 24a2 2 0 0 1-1 1.732 2 2 0 0 1-2 0A2 2 0 0 1 22 24" style="opacity:1;fill:#ba7bba;fill-opacity:1;stroke:none;stroke-width:2;stroke-linecap:square;stroke-linejoin:miter;stroke-dasharray:none;stroke-opacity:1;paint-order:markers stroke fill"/><path d="M25 25.75c.233 0 .75-.5.75-.75s-.5-.25-.75 0-.25.75 0 .75M23 25.75c-.233 0-.75-.5-.75-.75s.5-.25.75 0 .25.75 0 .75" style="fill:#ac6eac;fill-opacity:1;stroke:none;stroke-linecap:round;stroke-opacity:1;paint-order:markers stroke fill"/><path d="M16 21v1s-1 0-1-1z" style="fill:#5fb06c;fill-opacity:1;stroke:none;stroke-width:.999999;stroke-linecap:butt;stroke-dasharray:none;stroke-opacity:1;paint-order:markers stroke fill"/><circle cx="14.5" cy="25.5" r=".5" style="opacity:1;fill:#000;fill-opacity:1;stroke:none;stroke-width:1;stroke-linecap:butt;stroke-linejoin:miter;stroke-dasharray:none;stroke-opacity:1;paint-order:markers stroke fill"/><circle cx="15.5" cy="27.5" r=".5" style="opacity:1;fill:#000;fill-opacity:1;stroke:none;stroke-width:1;stroke-linecap:butt;stroke-linejoin:miter;stroke-dasharray:none;stroke-opacity:1;paint-order:markers stroke fill"/><circle cx="17.5" cy="26.5" r=".5" style="opacity:1;fill:#000;fill-opacity:1;stroke:none;stroke-width:1;stroke-linecap:butt;stroke-linejoin:miter;stroke-dasharray:none;stroke-opacity:1;paint-order:markers stroke fill"/><circle cx="18.5" cy="28.5" r=".5" style="opacity:1;fill:#000;fill-opacity:1;stroke:none;stroke-width:1;stroke-linecap:butt;stroke-linejoin:miter;stroke-dasharray:none;stroke-opacity:1;paint-order:markers stroke fill"/><circle cx="33.5" cy="25.5" r=".5" style="display:inline;fill:#000;fill-opacity:1;stroke:none;stroke-width:1;stroke-linecap:butt;stroke-linejoin:miter;stroke-dasharray:none;stroke-opacity:1;paint-order:markers stroke fill"/><circle cx="32.5" cy="27.5" r=".5" style="display:inline;fill:#000;fill-opacity:1;stroke:none;stroke-width:1;stroke-linecap:butt;stroke-linejoin:miter;stroke-dasharray:none;stroke-opacity:1;paint-order:markers stroke fill"/><circle cx="30.5" cy="26.5" r=".5" style="display:inline;fill:#000;fill-opacity:1;stroke:none;stroke-width:1;stroke-linecap:butt;stroke-linejoin:miter;stroke-dasharray:none;stroke-opacity:1;paint-order:markers stroke fill"/><circle cx="29.5" cy="28.5" r=".5" style="display:inline;fill:#000;fill-opacity:1;stroke:none;stroke-width:1;stroke-linecap:butt;stroke-linejoin:miter;stroke-dasharray:none;stroke-opacity:1;paint-order:markers stroke fill"/><path d="M16 19v1s-1 0-1-1z" style="fill:#5fb06c;fill-opacity:1;stroke:none;stroke-width:.999999;stroke-linecap:butt;stroke-dasharray:none;stroke-opacity:1;paint-order:markers stroke fill"/><path d="M16 5.5C16 5 19 3 25 3s10 3 11 4c2 2 3 5 3 12-6-3-7-7-10.5-9l.5 3c-3-2-5-5-7-5 1 2 1 4 1 7-4-2-3-7-7-9.5z" style="fill:#db517e;fill-opacity:1;stroke:#000;stroke-width:2;stroke-opacity:1;paint-order:markers stroke fill"/><path d="M30 18v4h-2c-1 0-1-1-1-1v-3z" style="fill:#5fb06c;fill-opacity:1;stroke:none;stroke-width:2;stroke-linecap:butt;stroke-dasharray:none;stroke-opacity:1;paint-order:markers stroke fill"/><path d="M27 16.5h3q1.5 0 1.5 1.5v4" style="fill:none;fill-opacity:1;stroke:#5fb06c;stroke-width:.999954;stroke-linecap:butt;stroke-dasharray:none;stroke-opacity:1;paint-order:markers stroke fill"/><path d="M32 21v1s1 0 1-1zM32 19v1s1 0 1-1z" style="fill:#5fb06c;fill-opacity:1;stroke:none;stroke-width:.999999;stroke-linecap:butt;stroke-dasharray:none;stroke-opacity:1;paint-order:markers stroke fill"/><path d="M16 5.5c1 0 6.136 2.313 6 2.5 1.5 0 6 2 6.5 2s5.489 2.494 6.5 3c1 .5 3.863 2 3.927 3.002.049.91.073 1.905.073 2.998-6-3-7-7-10.5-9l.5 3c-3-2-5-5-7-5 1 2 1 4 1 7-4-2-3-7-7-9.5" style="fill:#c9406f;fill-opacity:1;stroke:none;stroke-width:2;stroke-opacity:1;paint-order:markers stroke fill"/><path d="M19 5c0-.75 3-1 4.5-1 1.308 0 6.49 1.496 8.5 2.25C34 7 36 8 37 12c-6-4-12.99-3.976-17-6-.805-.406-1-.5-1-1" style="fill:#ed6f98;fill-opacity:1;stroke:none;stroke-width:2;stroke-opacity:1;paint-order:markers stroke fill"/></g></svg>