<?xml version="1.0" encoding="UTF-8" standalone="no"?>
<!-- Created with Inkscape (http://www.inkscape.org/) -->

<svg
   xmlns:dc="http://purl.org/dc/elements/1.1/"
   xmlns:cc="http://creativecommons.org/ns#"
   xmlns:rdf="http://www.w3.org/1999/02/22-rdf-syntax-ns#"
   xmlns:svg="http://www.w3.org/2000/svg"
   xmlns="http://www.w3.org/2000/svg"
   xmlns:sodipodi="http://sodipodi.sourceforge.net/DTD/sodipodi-0.dtd"
   xmlns:inkscape="http://www.inkscape.org/namespaces/inkscape"
   width="210mm"
   height="297mm"
   viewBox="0 0 744.09448819 1052.3622047"
   id="svg39017"
   version="1.1"
   inkscape:version="0.92.5 (2060ec1f9f, 2020-04-08)"
   sodipodi:docname="snowcrash-smol.svg">
  <defs
     id="defs39019" />
  <sodipodi:namedview
     id="base"
     pagecolor="#ffffff"
     bordercolor="#666666"
     borderopacity="1.0"
     inkscape:pageopacity="0.0"
     inkscape:pageshadow="2"
     inkscape:zoom="0.98994949"
     inkscape:cx="323.25648"
     inkscape:cy="599.49643"
     inkscape:document-units="px"
     inkscape:current-layer="layer1"
     showgrid="false"
     inkscape:window-width="3768"
     inkscape:window-height="2096"
     inkscape:window-x="72"
     inkscape:window-y="27"
     inkscape:window-maximized="1"
     showguides="false">
    <sodipodi:guide
       position="37.88072,776.30224"
       orientation="1,0"
       id="guide4330"
       inkscape:locked="false" />
  </sodipodi:namedview>
  <metadata
     id="metadata39022">
    <rdf:RDF>
      <cc:Work
         rdf:about="">
        <dc:format>image/svg+xml</dc:format>
        <dc:type
           rdf:resource="http://purl.org/dc/dcmitype/StillImage" />
        <dc:title />
      </cc:Work>
    </rdf:RDF>
  </metadata>
  <g
     inkscape:label="Layer 1"
     inkscape:groupmode="layer"
     id="layer1">
    <rect
       style="opacity:1;fill:#ffffff;fill-opacity:1;stroke:none;stroke-width:1.18870783;stroke-miterlimit:4;stroke-dasharray:none;stroke-opacity:1"
       id="rect4699"
       width="756"
       height="756"
       x="-18"
       y="134.3622"
       inkscape:export-xdpi="69.370003"
       inkscape:export-ydpi="69.370003" />
    <circle
       style="opacity:1;fill:#ffffff;fill-opacity:1;stroke:none;stroke-width:1.25883067;stroke-miterlimit:4;stroke-dasharray:none;stroke-opacity:1"
       id="path4572"
       cx="360"
       cy="512.36218"
       r="378"
       inkscape:export-xdpi="69.370003"
       inkscape:export-ydpi="69.370003" />
    <path
       style="opacity:1;fill:#000000;fill-opacity:1;stroke:none;stroke-width:1.33333337;stroke-miterlimit:4;stroke-dasharray:none;stroke-opacity:1"
       d="m 384,245.18555 c -166.26387,0 -301.333977,135.07011 -301.333984,301.33398 0,31.62053 4.976761,63.04426 14.748046,93.11719 l 4.330078,13.32031 248.8125,-95.1875 -91.1875,263.39453 11.75,4.7461 c 35.86964,14.49227 74.1942,21.9414 112.88086,21.9414 166.26387,-10e-6 301.33398,-135.06816 301.33398,-301.33203 V 286.11719 l -40.93164,-40.93164 h -27.36523 l -3.83984,3.84179 h -50.26368 v -3.84179 z m 0,26.66601 H 536.26758 V 439.10547 H 513.49414 V 296.11914 c 0,-9.54932 -8.10498,-17.65234 -17.6543,-17.65234 h -63.36132 c -9.54933,0 -17.65235,8.10302 -17.65235,17.65234 V 439.10547 H 384 v -84.58594 c -13.16495,0 -26.28469,1.36016 -39.1543,4.04102 5.32848,-22.39162 22.13542,-39.60567 39.1543,-47.26563 v -27.91406 c -36.81197,10.36942 -60.96068,41.43109 -66.42969,75.70508 l -0.002,0.01 -0.002,0.0137 C 310.46218,404.15387 335.14126,448.34897 384,465.68359 l 153.59961,0.0899 c 12.88012,0 25.33398,-11.19259 25.33398,-25.33399 V 282.41211 h 4.18946 l 6.7207,-6.71875 h 50.40039 l 3.83984,-3.8418 h 5.27149 l 25.31055,25.31055 v 249.35742 h -23.25391 v -34.06445 c 0,-16.19731 -13.45612,-29.65124 -29.65234,-29.65235 L 384,482.78516 v 13.9707 c -27.32597,0 -49.76367,22.43769 -49.76367,49.76367 H 305.88086 L 118.9668,617.88086 C 112.70281,594.6155 109.33398,570.65411 109.33398,546.51953 109.334,394.66739 232.14786,271.85156 384,271.85156 Z m 57.49414,33.28125 h 45.33203 V 425.66602 H 441.49414 Z M 384,513.20703 l 214.03125,0.0391 c 1.08756,0 1.54883,0.45744 1.54883,1.54493 v 31.72851 h 10.77539 l -37.53906,119.91406 3.18359,1.22852 -9.2793,24.12695 16.35938,15.76172 -2.46094,3.17774 -17.01953,-12.38086 -48.55078,48.55273 -25.14453,-26.66797 62.47656,-60.18945 3.94336,1.22851 35.92383,-114.75195 H 471.4668 c 0,48.46444 -39.00236,87.4668 -87.4668,87.4668 v -19.10547 c -2.39216,-1.02826 -4.96848,-1.5592 -7.57227,-1.56055 -10.60325,4.4e-4 -19.19878,8.59597 -19.19921,19.19922 4.3e-4,10.60325 8.59596,19.19878 19.19921,19.19922 2.60515,-0.008 5.18152,-0.54512 7.57227,-1.58008 v 171.04688 c -31.03826,0 -61.81503,-5.27258 -91.04102,-15.54102 l 89.94727,-259.125 h -20.61328 c 0,-12.1462 9.56084,-21.70703 21.70703,-21.70703 v -1.38867 z"
       id="rect4574-1"
       transform="scale(0.9375)"
       inkscape:connector-curvature="0"
       sodipodi:nodetypes="sscccccssccccccsscccsssscccccccccccscccccccccsccccccsscccccccsccccccccccccccccccccccccccc" />
    <path
       style="opacity:1;fill:#000000;fill-opacity:1;stroke:none;stroke-width:1.33333337;stroke-miterlimit:4;stroke-dasharray:none;stroke-opacity:1"
       d="M 221.68359 514.20508 C 209.79153 514.10513 197.97884 516.23863 186.86328 520.50586 L 186.83984 520.51562 L 186.81641 520.52539 C 177.16793 524.27085 158.65222 533.6722 151.85352 546.33594 L 140.52344 546.33594 C 140.52344 570.48592 144.11306 594.50096 151.17383 617.5957 L 176.67383 609.80078 C 170.40345 589.29128 167.20954 567.96546 167.19141 546.51953 L 230.84961 546.51953 C 220.51145 558.05655 215.50593 574.01335 218.33789 590.07422 L 244.59961 585.44336 C 242.47185 573.37628 249.19862 561.72601 260.71289 557.53516 C 272.22716 553.34431 284.86753 557.94698 290.99414 568.55859 L 314.08789 555.22461 C 312.25966 552.05803 310.13003 549.15304 307.75781 546.51953 L 292.85938 546.51953 C 280.4195 529.95147 245.17725 515.00132 224.08984 514.25391 L 224.07422 514.25391 L 224.0625 514.25391 C 223.26918 514.22735 222.4764 514.21174 221.68359 514.20508 z "
       transform="scale(0.9375)"
       id="rect4574" />
    <path
       style="opacity:1;fill:none;fill-opacity:1;stroke:#000000;stroke-width:25.00000191;stroke-miterlimit:4;stroke-dasharray:none;stroke-opacity:1"
       id="path1003-2"
       sodipodi:type="arc"
       sodipodi:cx="360.23959"
       sodipodi:cy="512.18915"
       sodipodi:rx="216"
       sodipodi:ry="216"
       sodipodi:start="1.5707963"
       sodipodi:end="1.9722221"
       sodipodi:open="true"
       d="M 360.23959,728.18915 A 216,216 0 0 1 275.84166,711.01819" />
    <path
       style="color:#000000;font-style:normal;font-variant:normal;font-weight:normal;font-stretch:normal;font-size:medium;line-height:normal;font-family:sans-serif;font-variant-ligatures:normal;font-variant-position:normal;font-variant-caps:normal;font-variant-numeric:normal;font-variant-alternates:normal;font-feature-settings:normal;text-indent:0;text-align:start;text-decoration:none;text-decoration-line:none;text-decoration-style:solid;text-decoration-color:#000000;letter-spacing:normal;word-spacing:normal;text-transform:none;writing-mode:lr-tb;direction:ltr;text-orientation:mixed;dominant-baseline:auto;baseline-shift:baseline;text-anchor:start;white-space:normal;shape-padding:0;clip-rule:nonzero;display:inline;overflow:visible;visibility:visible;opacity:1;isolation:auto;mix-blend-mode:normal;color-interpolation:sRGB;color-interpolation-filters:linearRGB;solid-color:#000000;solid-opacity:1;vector-effect:none;fill:#000000;fill-opacity:1;fill-rule:nonzero;stroke:none;stroke-width:25;stroke-linecap:butt;stroke-linejoin:miter;stroke-miterlimit:4;stroke-dasharray:none;stroke-dashoffset:0;stroke-opacity:1;color-rendering:auto;image-rendering:auto;shape-rendering:auto;text-rendering:auto;enable-background:accumulate"
       d="m 360,512.36133 v 17 c 9.24078,0 17,-7.75922 17,-17 z"
       id="path39596"
       inkscape:connector-curvature="0" />
    <path
       style="color:#000000;font-style:normal;font-variant:normal;font-weight:normal;font-stretch:normal;font-size:medium;line-height:normal;font-family:sans-serif;font-variant-ligatures:normal;font-variant-position:normal;font-variant-caps:normal;font-variant-numeric:normal;font-variant-alternates:normal;font-feature-settings:normal;text-indent:0;text-align:start;text-decoration:none;text-decoration-line:none;text-decoration-style:solid;text-decoration-color:#000000;letter-spacing:normal;word-spacing:normal;text-transform:none;writing-mode:lr-tb;direction:ltr;text-orientation:mixed;dominant-baseline:auto;baseline-shift:baseline;text-anchor:start;white-space:normal;shape-padding:0;clip-rule:nonzero;display:inline;overflow:visible;visibility:visible;opacity:1;isolation:auto;mix-blend-mode:normal;color-interpolation:sRGB;color-interpolation-filters:linearRGB;solid-color:#000000;solid-opacity:1;vector-effect:none;fill:#000000;fill-opacity:1;fill-rule:nonzero;stroke:none;stroke-width:26.66666603;stroke-linecap:butt;stroke-linejoin:miter;stroke-miterlimit:4;stroke-dasharray:none;stroke-dashoffset:0;stroke-opacity:1;color-rendering:auto;image-rendering:auto;shape-rendering:auto;text-rendering:auto;enable-background:accumulate"
       d="M 247.4082 341.71289 C 220.02467 341.9778 192.94347 353.96976 174.43945 376.82031 C 141.54343 417.44352 147.84945 477.44576 188.47266 510.3418 C 229.09587 543.23782 289.09812 536.9318 321.99414 496.30859 C 354.89016 455.68538 348.58415 395.68314 307.96094 362.78711 C 290.18828 348.3951 268.7065 341.50685 247.4082 341.71289 z M 247.60156 368.2168 C 261.39167 368.09625 275.29639 372.18112 287.3418 380.64062 C 246.88019 404.21446 216.33558 441.83085 201.64062 486.45312 C 175.51722 462.15217 172.35486 421.77053 195.16406 393.60352 C 208.56642 377.05297 227.9598 368.38849 247.60156 368.2168 z "
       transform="scale(0.9375)"
       id="path4159" />
    <path
       style="opacity:1;fill:none;fill-opacity:1;stroke:#000000;stroke-width:25;stroke-miterlimit:4;stroke-dasharray:none;stroke-opacity:1"
       d="M 193.51197,827.09904 A 270,270 0 0 1 37.870497,660.19399 L 283.94147,566.04514 Z"
       id="path4340-2"
       inkscape:connector-curvature="0" />
    <path
       style="opacity:1;fill:none;fill-opacity:1;stroke:#000000;stroke-width:25;stroke-miterlimit:4;stroke-dasharray:none;stroke-opacity:1"
       id="path1003"
       sodipodi:type="arc"
       sodipodi:cx="294.65576"
       sodipodi:cy="576.7594"
       sodipodi:rx="216"
       sodipodi:ry="216"
       sodipodi:start="1.9722221"
       sodipodi:end="2.8448867"
       sodipodi:open="true"
       d="M 210.25784,775.58845 A 216,216 0 0 1 88.093933,639.91168" />
    <circle
       style="opacity:1;fill:#000000;fill-opacity:1;stroke:none;stroke-width:25;stroke-miterlimit:4;stroke-dasharray:none;stroke-opacity:1"
       id="path4549"
       cx="147.6022"
       cy="675.79962"
       r="18" />
    <circle
       style="opacity:1;fill:#000000;fill-opacity:1;stroke:none;stroke-width:25.00000191;stroke-miterlimit:4;stroke-dasharray:none;stroke-opacity:1"
       id="path4549-7"
       cx="186.16072"
       cy="520.66577"
       r="18" />
    <path
       style="opacity:1;fill:none;fill-opacity:1;stroke:#000000;stroke-width:25.00000381;stroke-miterlimit:4;stroke-dasharray:none;stroke-opacity:1"
       id="path4530-0-3"
       sodipodi:type="arc"
       sodipodi:cx="187.11113"
       sodipodi:cy="609.83978"
       sodipodi:rx="36"
       sodipodi:ry="36"
       sodipodi:start="5.7595865"
       sodipodi:end="2.9670597"
       d="m 218.28804,591.83978 a 36,36 0 0 1 -2.30047,39.49771 36,36 0 0 1 -37.17861,13.53191 36,36 0 0 1 -27.15091,-28.77828"
       sodipodi:open="true" />
    <path
       style="opacity:1;fill:none;fill-opacity:1;stroke:#000000;stroke-width:25.00000191;stroke-miterlimit:4;stroke-dasharray:none;stroke-opacity:1"
       id="path4530-0-31"
       r="36"
       cy="651.24615"
       cx="293.30356"
       d=""
       inkscape:connector-curvature="0" />
    <path
       style="opacity:1;fill:none;fill-opacity:1;stroke:#000000;stroke-width:25.00000381;stroke-miterlimit:4;stroke-dasharray:none;stroke-opacity:1"
       id="path4530-0-9"
       sodipodi:type="arc"
       sodipodi:cx="227.95932"
       sodipodi:cy="715.64331"
       sodipodi:rx="36"
       sodipodi:ry="36"
       sodipodi:start="1.9198622"
       sodipodi:end="5.2359878"
       d="m 215.64659,749.47224 a 36,36 0 0 1 -23.44385,-29.64959 36,36 0 0 1 15.97426,-34.2569 36,36 0 0 1 37.78232,-1.09935"
       sodipodi:open="true" />
    <path
       style="opacity:1;fill:none;fill-opacity:1;stroke:#000006;stroke-width:25.00000191;stroke-miterlimit:4;stroke-dasharray:none;stroke-opacity:1"
       id="path4530-0"
       sodipodi:type="arc"
       sodipodi:cx="293.30356"
       sodipodi:cy="651.24615"
       sodipodi:rx="36"
       sodipodi:ry="36"
       sodipodi:start="5.2359878"
       sodipodi:end="1.9198622"
       d="m 311.30356,620.06924 a 36,36 0 0 1 14.62708,46.39117 36,36 0 0 1 -44.93981,18.61468"
       sodipodi:open="true" />
  </g>
</svg>
