<?xml version="1.0" encoding="UTF-8" standalone="no"?>
<!-- Created with Inkscape (http://www.inkscape.org/) -->

<svg
   width="1000"
   height="1000"
   viewBox="0 0 264.58333 264.58334"
   version="1.1"
   id="svg5"
   xmlns="http://www.w3.org/2000/svg"
   xmlns:svg="http://www.w3.org/2000/svg">
  <defs
     id="defs2" />
  <g
     id="layer1">
    <path
       id="path39"
       style="fill:#000000;fill-rule:evenodd;stroke-width:0.999999"
       d="M 500 0 C 411.03857 0 431.36866 80.568167 499.69727 180.52148 C 568.01751 80.566513 588.49595 -9.7655823e-14 500 0 z M 499.69727 180.52148 C 475.75341 215.55221 445.97818 252.93467 412.88672 290.10547 C 469.82274 293.33281 529.53116 293.29668 586.48047 290.00391 C 553.38975 252.86691 523.62299 215.52081 499.69727 180.52148 z M 586.48047 290.00391 C 624.53711 332.71405 666.89456 375.08072 709.60938 413.15625 C 712.46345 363.31724 717.83688 315.68653 725.69336 273.88086 C 683.89615 281.73863 636.28767 287.12409 586.48047 290.00391 z M 725.69336 273.88086 C 844.68033 251.5116 916.12836 209.02289 853.55273 146.44727 C 790.64769 83.54222 748.05547 154.88821 725.69336 273.88086 z M 709.60938 413.15625 C 706.34484 470.16271 706.35408 529.94107 709.63281 586.94336 C 746.76139 553.81207 784.11123 523.9965 819.12305 500.01172 C 784.1054 476.05108 746.74791 446.26114 709.60938 413.15625 z M 819.12305 500.01172 C 919.24289 568.51817 1000 589.00445 1000 500 C 1000 410.90123 919.23662 431.4291 819.12305 500.01172 z M 709.63281 586.94336 C 667.0816 624.91348 624.88796 667.14584 586.95312 709.72461 C 636.56212 712.554 683.98552 717.87523 725.64648 725.66211 C 717.835 683.99584 712.48698 636.56434 709.63281 586.94336 z M 725.64648 725.66211 C 748.00058 844.89827 790.61727 916.4882 853.55273 853.55273 C 916.55495 790.55052 844.93227 747.9579 725.64648 725.66211 z M 586.95312 709.72461 C 529.97063 706.47467 470.21748 706.49231 413.23242 709.77734 C 446.35069 746.9111 476.15005 784.26103 500.11328 819.26953 C 524.06757 784.24562 553.85253 746.87733 586.95312 709.72461 z M 500.11328 819.26953 C 431.68359 919.32157 411.20085 1000 500 1000 C 589.0444 1000 568.59532 919.31669 500.11328 819.26953 z M 413.23242 709.77734 C 375.22791 667.16491 332.94658 624.90301 290.31445 586.91406 C 287.47601 636.61391 282.13402 684.11994 274.32031 725.83789 C 316.0372 718.00793 363.53883 712.64205 413.23242 709.77734 z M 274.32031 725.83789 C 155.18693 748.19837 83.657133 790.7626 146.44727 853.55273 C 209.41106 916.51652 252.00038 845.00565 274.32031 725.83789 z M 290.31445 586.91406 C 293.57365 529.84712 293.55195 470.00296 290.25586 412.94336 C 253.10023 446.12966 215.72195 475.99192 180.68945 500.00781 C 215.73747 523.97477 253.13432 553.78331 290.31445 586.91406 z M 180.68945 500.00781 C 80.656747 431.60225 -9.7710521e-14 411.1582 0 500 C 0 589.0902 80.669653 568.57458 180.68945 500.00781 z M 290.25586 412.94336 C 332.79101 374.95222 374.96767 332.69897 412.88672 290.10547 C 363.27803 287.29346 315.8595 281.98988 274.20703 274.21875 C 282.02967 315.87997 287.38903 363.31482 290.25586 412.94336 z M 274.20703 274.21875 C 251.84323 155.11532 209.26778 83.626749 146.44727 146.44727 C 83.451194 209.44334 154.99906 251.97803 274.20703 274.21875 z "
       transform="scale(0.26458333)" />
    <path
       id="path1399"
       style="fill:#ffffff;stroke-width:0.999999"
       d="m 586.48047,290.00391 c -56.98501,3.27333 -116.60877,3.36486 -173.59375,0.10156 -37.94258,42.56686 -80.0717,84.88035 -122.63086,122.83789 3.27384,56.99353 3.32703,116.97254 0.0586,173.9707 42.64887,38.02307 84.90914,80.21333 122.91797,122.86328 56.94376,-3.27798 116.78444,-3.29888 173.7207,-0.0527 37.96624,-42.61589 80.09263,-84.7849 122.67969,-122.78125 -3.28615,-57.00164 -3.27738,-116.78494 -0.0234,-173.78711 -42.60666,-37.964 -85.14111,-80.56811 -123.12891,-123.15234 z"
       transform="scale(0.26458333)" />
    <circle
       style="fill:#628ec5;stroke-width:0.0881934;fill-opacity:1"
       id="path320"
       cx="132.29167"
       cy="132.29167"
       r="44.096783" />
  </g>
</svg>
