<?xml version="1.0" encoding="UTF-8" standalone="no"?>
<!-- Created with Inkscape (http://www.inkscape.org/) -->

<svg
   xmlns:dc="http://purl.org/dc/elements/1.1/"
   xmlns:cc="http://creativecommons.org/ns#"
   xmlns:rdf="http://www.w3.org/1999/02/22-rdf-syntax-ns#"
   xmlns:svg="http://www.w3.org/2000/svg"
   xmlns="http://www.w3.org/2000/svg"
   xmlns:sodipodi="http://sodipodi.sourceforge.net/DTD/sodipodi-0.dtd"
   xmlns:inkscape="http://www.inkscape.org/namespaces/inkscape"
   width="600"
   height="80"
   viewBox="0 0 158.75 21.166667"
   version="1.1"
   id="svg2288"
   sodipodi:docname="sporkles1.svg"
   inkscape:version="0.92.4 (5da689c313, 2019-01-14)">
  <defs
     id="defs2282" />
  <sodipodi:namedview
     id="base"
     pagecolor="#ffffff"
     bordercolor="#666666"
     borderopacity="1.0"
     inkscape:pageopacity="0.0"
     inkscape:pageshadow="2"
     inkscape:zoom="1.4"
     inkscape:cx="350.93059"
     inkscape:cy="13.39124"
     inkscape:document-units="mm"
     inkscape:current-layer="layer1"
     showgrid="false"
     fit-margin-top="0"
     fit-margin-left="0"
     fit-margin-right="0"
     fit-margin-bottom="0"
     inkscape:window-width="1680"
     inkscape:window-height="987"
     inkscape:window-x="1912"
     inkscape:window-y="-8"
     inkscape:window-maximized="1"
     units="px" />
  <metadata
     id="metadata2285">
    <rdf:RDF>
      <cc:Work
         rdf:about="">
        <dc:format>image/svg+xml</dc:format>
        <dc:type
           rdf:resource="http://purl.org/dc/dcmitype/StillImage" />
        <dc:title></dc:title>
      </cc:Work>
    </rdf:RDF>
  </metadata>
  <g
     inkscape:label="Layer 1"
     inkscape:groupmode="layer"
     id="layer1"
     transform="translate(-88.015083,-62.171265)">
    <path
       sodipodi:nodetypes="sasasasas"
       inkscape:connector-curvature="0"
       id="path2130"
       d="m 167.19279,76.8068 c 0.45683,0 0.11004,-2.26309 0.82169,-3.03055 0.55825,-0.60198 2.32184,-0.44891 2.32184,-0.8217 0,-0.37278 -1.7636,-0.21971 -2.32184,-0.82169 -0.71169,-0.76746 -0.36485,-3.03055 -0.82169,-3.03055 -0.45683,0 -0.11004,2.26309 -0.8217,3.03055 -0.55824,0.60198 -2.32184,0.44891 -2.32184,0.82169 0,0.37279 1.76361,0.21972 2.32184,0.8217 0.71168,0.76746 0.36486,3.03055 0.8217,3.03055 z"
       inkscape:transform-center-y="-2.1911481e-06"
       inkscape:transform-center-x="-1.3481327e-06"
       style="opacity:1;vector-effect:none;fill:#ffab5c;fill-opacity:1;fill-rule:nonzero;stroke:none;stroke-width:0.36000001;stroke-linecap:round;stroke-linejoin:round;stroke-miterlimit:4;stroke-dasharray:none;stroke-opacity:1;paint-order:normal" />
    <path
       style="opacity:1;vector-effect:none;fill:#ffab5c;fill-opacity:1;fill-rule:nonzero;stroke:none;stroke-width:0.23453653;stroke-linecap:round;stroke-linejoin:round;stroke-miterlimit:4;stroke-dasharray:none;stroke-opacity:1;paint-order:normal"
       inkscape:transform-center-y="-1.5569521e-06"
       d="m 171.69313,76.66344 c 0.36275,0 0.15958,-0.98058 0.48084,-1.32227 0.27519,-0.29268 1.1051,-0.11808 1.1051,-0.48083 0,-0.36276 -0.82991,-0.18816 -1.1051,-0.48084 -0.32124,-0.34168 -0.11809,-1.32226 -0.48084,-1.32226 -0.36276,0 -0.15959,0.98058 -0.48084,1.32226 -0.27517,0.29268 -1.1051,0.11808 -1.1051,0.48084 0,0.36275 0.82993,0.18815 1.1051,0.48083 0.32126,0.34169 0.11808,1.32227 0.48084,1.32227 z"
       id="path2132"
       inkscape:connector-curvature="0"
       sodipodi:nodetypes="sasasasas" />
    <path
       style="opacity:1;vector-effect:none;fill:#ffab5c;fill-opacity:1;fill-rule:nonzero;stroke:none;stroke-width:0.12820578;stroke-linecap:round;stroke-linejoin:round;stroke-miterlimit:4;stroke-dasharray:none;stroke-opacity:1;paint-order:normal"
       d="m 169.84427,70.63816 c 0.19325,0 0.13141,-0.49116 0.29854,-0.66936 0.1464,-0.15609 0.56839,-0.10528 0.56839,-0.29853 0,-0.19326 -0.42199,-0.14244 -0.56839,-0.29854 -0.16713,-0.17819 -0.10529,-0.66935 -0.29854,-0.66935 -0.19325,0 -0.13141,0.49116 -0.29853,0.66935 -0.1464,0.1561 -0.56839,0.10528 -0.56839,0.29854 0,0.19325 0.42199,0.14244 0.56839,0.29853 0.16713,0.1782 0.10528,0.66936 0.29853,0.66936 z"
       id="path2134"
       inkscape:connector-curvature="0"
       sodipodi:nodetypes="sasasasas" />
    <path
       style="opacity:1;vector-effect:none;fill:#ffab5c;fill-opacity:1;fill-rule:nonzero;stroke:none;stroke-width:0.08293065;stroke-linecap:round;stroke-linejoin:round;stroke-miterlimit:4;stroke-dasharray:none;stroke-opacity:1;paint-order:normal"
       inkscape:transform-center-x="3.6518673e-06"
       inkscape:transform-center-y="-2.1911481e-06"
       d="m 173.56189,72.0865 c 0.0777,0 0.16102,-0.31459 0.27612,-0.44634 0.0953,-0.10907 0.33551,-0.21035 0.33551,-0.27612 0,-0.0658 -0.24021,-0.16705 -0.33551,-0.27612 -0.11511,-0.13175 -0.19845,-0.44634 -0.27612,-0.44634 -0.0776,0 -0.16102,0.31459 -0.27612,0.44634 -0.0953,0.10908 -0.33553,0.21035 -0.33553,0.27612 0,0.0658 0.24023,0.16705 0.33553,0.27612 0.1151,0.13175 0.19842,0.44634 0.27612,0.44634 z"
       id="path2136"
       inkscape:connector-curvature="0"
       sodipodi:nodetypes="sasasasas" />
    <path
       style="opacity:1;vector-effect:none;fill:#ffab5c;fill-opacity:1;fill-rule:nonzero;stroke:none;stroke-width:0.059921;stroke-linecap:round;stroke-linejoin:round;stroke-miterlimit:4;stroke-dasharray:none;stroke-opacity:1;paint-order:normal"
       inkscape:transform-center-x="3.6518673e-06"
       inkscape:transform-center-y="-2.1911481e-06"
       d="m 163.41236,71.28233 c 0.0561,0 0.11634,-0.2273 0.19951,-0.3225 0.0689,-0.0788 0.24242,-0.15199 0.24242,-0.19951 0,-0.0475 -0.17356,-0.1207 -0.24242,-0.19951 -0.0832,-0.0952 -0.14339,-0.3225 -0.19951,-0.3225 -0.0561,0 -0.11635,0.22731 -0.19952,0.3225 -0.0689,0.0788 -0.24243,0.15199 -0.24243,0.19951 0,0.0475 0.17357,0.1207 0.24243,0.19951 0.0832,0.0952 0.14338,0.3225 0.19952,0.3225 z"
       id="path2138"
       inkscape:connector-curvature="0"
       sodipodi:nodetypes="sasasasas" />
    <path
       style="opacity:1;vector-effect:none;fill:#ffab5c;fill-opacity:1;fill-rule:nonzero;stroke:none;stroke-width:0.04306046;stroke-linecap:round;stroke-linejoin:round;stroke-miterlimit:4;stroke-dasharray:none;stroke-opacity:1;paint-order:normal"
       inkscape:transform-center-x="-1.3481327e-06"
       inkscape:transform-center-y="-2.1911481e-06"
       d="m 160.48169,71.97807 c 0.0403,0 0.0836,-0.16335 0.14337,-0.23176 0.0495,-0.0566 0.17421,-0.10922 0.17421,-0.14337 0,-0.0341 -0.12473,-0.0867 -0.17421,-0.14337 -0.0598,-0.0684 -0.10304,-0.23176 -0.14337,-0.23176 -0.0404,0 -0.0836,0.16334 -0.14337,0.23176 -0.0495,0.0566 -0.17421,0.10922 -0.17421,0.14337 0,0.0342 0.12472,0.0867 0.17421,0.14337 0.0598,0.0684 0.10302,0.23176 0.14337,0.23176 z"
       id="path2140"
       inkscape:connector-curvature="0"
       sodipodi:nodetypes="sasasasas" />
    <path
       style="opacity:1;vector-effect:none;fill:#ffab5c;fill-opacity:1;fill-rule:nonzero;stroke:none;stroke-width:0.04306046;stroke-linecap:round;stroke-linejoin:round;stroke-miterlimit:4;stroke-dasharray:none;stroke-opacity:1;paint-order:normal"
       inkscape:transform-center-x="-1.3481327e-06"
       inkscape:transform-center-y="-2.1911481e-06"
       d="m 176.36982,75.04131 c 0.0403,0 0.0836,-0.16335 0.14337,-0.23176 0.0495,-0.0566 0.17421,-0.10922 0.17421,-0.14337 0,-0.0341 -0.12473,-0.0867 -0.17421,-0.14337 -0.0598,-0.0684 -0.10304,-0.23177 -0.14337,-0.23177 -0.0404,0 -0.0836,0.16336 -0.14337,0.23177 -0.0495,0.0566 -0.17421,0.10922 -0.17421,0.14337 0,0.0342 0.12472,0.0867 0.17421,0.14337 0.0598,0.0684 0.10303,0.23176 0.14337,0.23176 z"
       id="path2142"
       inkscape:connector-curvature="0"
       sodipodi:nodetypes="sasasasas" />
    <path
       sodipodi:nodetypes="sasasasas"
       inkscape:connector-curvature="0"
       id="path2144"
       d="m 164.34109,75.561 c 0.0777,0 0.16102,-0.31459 0.27612,-0.44634 0.0953,-0.10907 0.33551,-0.21035 0.33551,-0.27612 0,-0.0658 -0.24021,-0.16705 -0.33551,-0.27612 -0.11511,-0.13175 -0.19845,-0.44634 -0.27612,-0.44634 -0.0776,0 -0.16102,0.31459 -0.27612,0.44634 -0.0953,0.10908 -0.33553,0.21035 -0.33553,0.27612 0,0.0658 0.24023,0.16705 0.33553,0.27612 0.1151,0.13175 0.19842,0.44634 0.27612,0.44634 z"
       inkscape:transform-center-y="-2.1911481e-06"
       inkscape:transform-center-x="3.6518673e-06"
       style="opacity:1;vector-effect:none;fill:#ffab5c;fill-opacity:1;fill-rule:nonzero;stroke:none;stroke-width:0.08293065;stroke-linecap:round;stroke-linejoin:round;stroke-miterlimit:4;stroke-dasharray:none;stroke-opacity:1;paint-order:normal" />
  </g>
</svg>
