<?xml version="1.0"?>
<svg width="1280" height="262" xmlns="http://www.w3.org/2000/svg" xmlns:svg="http://www.w3.org/2000/svg" clip-rule="evenodd" fill-rule="evenodd" stroke-linejoin="round" xml:space="preserve">
 <style>svg{background-color:#671a3d}@media (min-width:768px){svg{background-color:#83254f}}</style>
 <g class="layer">
  <title>Layer 1</title>
  <ellipse cx="766.42" cy="140.14" fill="none" id="svg_1" rx="438.7" ry="57.87" stroke="#000000" stroke-width="9" transform="matrix(1 0 0 1 0 0) matrix(0.998732 -0.0503422 0.0503422 0.998732 -6.08323 38.7609)"/>
  <path d="m634.64,90.3c2.93,-2.09 -73.34,-15.5 -87.36,-36.33c-14.03,-20.83 96.89,-26.15 126.81,-27.31c29.92,-1.16 103.97,1.61 121.72,18.11c17.76,16.49 -23.51,37.16 -23.85,36.82" fill="none" id="svg_3" stroke="#000000" stroke-linecap="round" stroke-width="9"/>
  <path d="m832.17,112.78c42.61,-24.35 103.04,-43.48 198.7,-51.74c95.65,-8.26 176.96,-0.43 177.39,17.65c0.43,18.09 -224.04,37.13 -240,38.26" fill="none" id="svg_4" stroke="#000000" stroke-linecap="round" stroke-width="9"/>
  <path d="m347.53,179.34c-18.22,2.35 -76.88,13.38 -48.93,24.31" fill="none" id="svg_6" stroke="#000000" stroke-linecap="round" stroke-width="8"/>
  <path d="m841.7,193.38c9.99,1.9 42.16,10.84 26.86,19.79" fill="none" id="svg_7" stroke="#000000" stroke-linecap="round" stroke-width="8"/>
  <path d="m958.46,183.24c10.44,2.57 50.97,8.67 23.61,17.63" fill="none" id="svg_8" stroke="#000000" stroke-linecap="round" stroke-width="8"/>
  <path d="m1067.25,167.61c11.85,-2.1 41.95,13.55 13.73,19.24" fill="none" id="svg_9" stroke="#000000" stroke-linecap="round" stroke-width="8"/>
  <ellipse cx="519.48" cy="147.97" fill="#000000" id="svg_10" rx="42.44" ry="9.28" stroke="#000000" stroke-linecap="round" transform="matrix(0.998701 -0.0509517 0.0509517 0.998701 -6.86435 26.6608)"/>
  <ellipse cx="662.01" cy="160.05" fill="#000000" id="svg_11" rx="42.44" ry="9.28" stroke="#000000" stroke-linecap="round" transform="matrix(1 0 0 1 0 0) matrix(0.998701 -0.0509517 0.0509517 0.998701 -6.86435 26.6608)"/>
  <path d="m523.01,168.48c-9.24,3.63 -8.37,6.98 0.26,9.38c8.63,2.4 27.76,-2.68 36.08,-1.72c8.33,0.96 7.65,5.46 20.96,5.5c13.31,0.04 26.5,-2.15 32.71,-6.33" fill="none" id="svg_12" stroke="#000000" stroke-linecap="round" stroke-width="9" transform="matrix(1 0 0 1 0 0) rotate(0.378285 564.734 175.064)"/>
 </g>
</svg>