<?xml version="1.0" encoding="UTF-8" standalone="no"?>
<!DOCTYPE svg PUBLIC "-//W3C//DTD SVG 1.1//EN" "http://www.w3.org/Graphics/SVG/1.1/DTD/svg11.dtd">
<svg width="100%" height="100%" viewBox="0 0 1760 360" version="1.1" xmlns="http://www.w3.org/2000/svg"
    xmlns:xlink="http://www.w3.org/1999/xlink" xml:space="preserve" xmlns:serif="http://www.serif.com/"
    style="fill-rule:evenodd;clip-rule:evenodd;stroke-linejoin:round;stroke-miterlimit:2;">
    <defs xmlns="http://www.w3.org/2000/svg">
        <radialGradient id="trans">
            <stop offset="0%" stop-color="rgb(250,246,246)" />
            <stop offset="25%" stop-color="rgb(250,246,246)" />
            <stop offset="50%" stop-color="#5bcefa" />
            <stop offset="75%" stop-color="#f5a9b8" />
            <stop offset="100%" stop-color="rgb(250,246,246)" />
            <animate attributeName="r" from="0%" to="250%" dur="3s" repeatCount="indefinite" />
        </radialGradient>
        <radialGradient id="lesbiab">
            <stop offset="0%" stop-color="rgb(250,246,246)" />
            <stop offset="25%" stop-color="rgb(250,246,246)" />
            <stop offset="37.5%" stop-color="#d62900" />
            <stop offset="50%" stop-color="#ff9b55" />
            <stop offset="62.5%" stop-color="#d461a6" />
            <stop offset="75%" stop-color="#a50062" />
            <stop offset="100%" stop-color="rgb(250,246,246)" />
            <animate attributeName="r" from="0%" to="250%" dur="3s" repeatCount="indefinite" />
        </radialGradient>
    </defs>
    <clipPath id="top-clip" clipPathUnits="objectBoundingBox">
        <path d="M0,0L1,0L1,0.06L0,0.8L0,0Z" style="fill:none;" />
    </clipPath>
    <clipPath id="bottom-clip" clipPathUnits="objectBoundingBox">
        <path d="M1,1L1,0.06L0,0.8L0,1L1,1Z" style="fill:none;" />
    </clipPath>
    <rect x="-17" y="-13" width="1789" height="386" style="fill:rgb(250,246,246);" />
    <g transform="matrix(1.3937,0,0,1.43697,-415.445,-111.592)" clip-path="url(#top-clip)">
        <path
            d="M929.5,165.8C942.868,142 969.605,142 982.974,153.9C996.343,165.8 996.343,189.6 982.974,213.4C973.616,231.25 949.553,249.1 929.5,261C909.447,249.1 885.384,231.25 876.026,213.4C862.658,189.6 862.658,165.8 876.026,153.9C889.395,142 916.132,142 929.5,165.8Z"
            style="fill:rgb(250,246,246);" />
        <path
            d="M929.5,151.441C947.322,132.593 974.369,134.906 988.796,147.748C1004.43,161.665 1006.18,189.462 990.6,217.279C980.605,236.247 955.302,255.478 933.994,268.123L929.5,270.79L925.006,268.123C903.703,255.481 878.407,236.256 868.408,217.292C852.817,189.459 854.571,161.664 870.204,147.748C884.631,134.906 911.678,132.593 929.5,151.441ZM929.5,165.8C916.132,142 889.395,142 876.026,153.9C862.658,165.8 862.658,189.6 876.026,213.4C885.384,231.25 909.447,249.1 929.5,261C949.553,249.1 973.616,231.25 982.974,213.4C996.343,189.6 996.343,165.8 982.974,153.9C969.605,142 942.868,142 929.5,165.8Z"
            style="fill:url(#trans);" />
    </g>
    <g transform="matrix(1.3937,0,0,1.43697,-415.445,-111.592)" clip-path="url(#bottom-clip)">
        <path
            d="M929.5,165.8C942.868,142 969.605,142 982.974,153.9C996.343,165.8 996.343,189.6 982.974,213.4C973.616,231.25 949.553,249.1 929.5,261C909.447,249.1 885.384,231.25 876.026,213.4C862.658,189.6 862.658,165.8 876.026,153.9C889.395,142 916.132,142 929.5,165.8Z"
            style="fill:rgb(250,246,246);" />
        <path
            d="M929.5,151.441C947.322,132.593 974.369,134.906 988.796,147.748C1004.43,161.665 1006.18,189.462 990.6,217.279C980.605,236.247 955.302,255.478 933.994,268.123L929.5,270.79L925.006,268.123C903.703,255.481 878.407,236.256 868.408,217.292C852.817,189.459 854.571,161.664 870.204,147.748C884.631,134.906 911.678,132.593 929.5,151.441ZM929.5,165.8C916.132,142 889.395,142 876.026,153.9C862.658,165.8 862.658,189.6 876.026,213.4C885.384,231.25 909.447,249.1 929.5,261C949.553,249.1 973.616,231.25 982.974,213.4C996.343,189.6 996.343,165.8 982.974,153.9C969.605,142 942.868,142 929.5,165.8Z"
            style="fill:url(#lesbiab);" />
    </g>
</svg>
