<svg height="480" viewBox="0 0 2048 480" width="2048" xmlns="http://www.w3.org/2000/svg" xmlns:xlink="http://www.w3.org/1999/xlink"><linearGradient id="a"><stop offset="0" stop-color="#888"/><stop offset="1" stop-color="#505050" stop-opacity=".8"/></linearGradient><linearGradient id="b" gradientUnits="userSpaceOnUse" x1="1473.5" x2="1692.3" xlink:href="#a" y1="239.46" y2="239.46"/><linearGradient id="c" gradientUnits="userSpaceOnUse" x1="1292.4" x2="1466" xlink:href="#a" y1="326.02" y2="152.78"/><linearGradient id="d" gradientUnits="userSpaceOnUse" x1="980.29" x2="980.29" y1=".16948" y2="481"><stop offset="0" stop-color="#f00"/><stop offset="1" stop-color="#6b0008"/></linearGradient><path d="m-4-2h2058v488h-2058z" fill="url(#d)"/><g transform="matrix(2.1593 0 0 2.1593 -1511.9 1701.4)"><path d="m1258.3-679.25c31.808-9.7649 19.593-76.619 12.458-93.835-8.0708-17.238-48.396-46.933-33.551-58.846 26.39-21.178 51.527-51.431 9.7568-58.639-59.25-10.224-65.664 19.519-52.606 50.695 16.983 40.545 51.457 47.954 60.428 76.949 13.081 42.278-5.2873 86.378 3.5135 83.676z" fill="#090106"/><path d="m983.23-555.43 54.801 1.7678 119.5-15.203 60.811 26.163 42.78-1.7678 44.901-26.163 25.456-39.952 14.496-65.407 90.156-72.832 17.324-37.83-13.082-23.688-29.345 4.5962-63.993 64.7-5.6568-53.74-4.9498-53.74-18.738-7.0711-12.728 14.142-2.1214 134-36.416 28.284-63.993-113.84-27.224-4.9498-8.8389 18.385 30.406 59.751-35.709 6.364-28.284 21.567-12.021 25.809 4.2427 50.558-56.569 20.153-85.206 2.4749-14.849 18.738z" fill="#82ade1"/><path d="m1220.9-542.38s-11.119-17.836 11.197-38.707c25.721-24.055 96.757-27.464 96.757-27.464-18.778 44.434-37.66 75.895-107.95 66.172z" fill="#b8c8da"/><path d="m1020-593.26c-12.307 21.199 23.512 29.479 41.77 39.948 0 0-68.8 2.0267-71.822-16.967-1.9817-12.454 30.052-22.981 30.052-22.981z" fill="#3d8ded"/><path d="m1381.1-771.12c23.799 5.8728 11.374 44.141 6.2222 64.547 0 0 63.498-68.835 51.935-84.202-7.5825-10.076-58.157 19.655-58.157 19.655z" fill="#3d8ded"/><path d="m1016.5-593.25c-9.6989 13.833-9.4599 27.667 3.5 41.5 0 0-47.558.46033-49-22.25-1.2973-20.428 45.5-19.25 45.5-19.25z" fill="#2929e9"/><path d="m1189.4-732.92 33.588-21.213 31.466 69.65-15.556 7.7782z" fill="#3d8ded"/><path d="m1242.8-727.94c-16.785-1.9194-28.827 4.8938-34.796 22.885 0 0-54.606-73.236-31.338-90.178 22.692-16.522 66.134 67.293 66.134 67.293z" fill="#2929e9"/><path d="m1304.3-708.17-1.4143-83.439 37.123.35355 3.5356 53.387z" fill="#3d8ded"/><path d="m1343.8-751.39c-12.885-10.928-26.682-11.96-41.646-.32403 0 0-2.3791-104.36 20.368-103.71 20.461.58339 21.278 104.04 21.278 104.04z" fill="#2929e9"/><path d="m1394.1-782.57c-1.2316 13.386 4.3182 35.206 29.981 39.607 0 0 31.742-45.482 16.896-62.729-13.354-15.513-46.877 23.122-46.877 23.122z" fill="#2929e9"/><path d="m1121.6-631.62c-9.4507-29.044 12.443-72.394 41.543-81.671 28.527-9.0946 69.516 13.509 79.55 41.719 10.138 28.504-7.2661 73.131-35.709 83.439-30.029 10.882-75.5-13.115-85.383-43.487z" fill="#b8c8da"/><path d="m1209-538.27c-11.098-2.3985-35.448-13.244-49.601-22.093-4.0328-2.5215-12.31-1.8305-52.864 4.4128-77.211 11.887-120.65 11.83-133.43-.17353-8.5248-8.0086-11.393-20.309-6.8047-29.182 6.2228-12.033 12.095-13.542 57.674-14.811 42.801-1.1923 64.505-4.9477 85.264-14.753 8.0477-3.8014 8.8537-4.9453 7.8229-11.102-2.6254-15.681-1.0734-43.795 3.0017-54.375 6.9221-17.971 30.49-36.338 51.118-39.838 17.907-3.0384 17.513-2.6401 12.049-12.179-15.512-27.081-20.199-38.041-20.167-47.164.049-13.797 4.2747-20.555 15.24-24.368 20.216-7.031 32.09 5.7519 60.832 65.489 10.298 21.404 20.302 40.727 22.231 42.939 4.5692 5.2412 11.372 5.0814 20.495-.48157 14.839-9.0477 15.501-12.442 16.775-85.913.8461-50.053-.4744-65.146 7.598-71.826 8.1264-6.9846 21.55-7.4386 29.728-1.0056 8.2597 6.497 11.096 20.845 12.62 63.841.7283 20.543 2.055 37.35 2.9482 37.35 1.5376 0 18.787-17.772 45.166-46.534 13.24-14.436 24.755-19.222 40.036-16.641 12.235 2.0672 19.914 8.8111 22.975 20.178 5.6129 20.845-2.6471 41.181-25.039 61.645-14.536 13.285-49.815 40.289-69.953 53.544-12.568 8.2725-13.216 9.1672-13.222 18.244-.01 13.534-10.073 49.397-18.608 66.306-8.5916 17.02-30.456 39.476-47.063 48.338-23.412 12.493-49.84 15.986-76.826 10.153zm63.75-19.839c29.17-14.6 46.59-36.326 51.506-64.236 2.6494-15.041-.1779-29.872-6.9941-36.688-3.9595-3.9595-3.1768-4.7527 20.233-20.503 33.293-22.4 77.386-59.507 89.063-74.952 11.23-14.854 17.359-35.426 12.353-41.458-3.7352-4.5006-18.143-4.4713-24.2.0492-2.5283 1.8868-23.214 21.78-45.969 44.206-36.55 36.023-45.696 43.656-78.476 65.493-20.407 13.594-38.094 25.99-39.304 27.547-1.2099 1.5565-3.3507 10.022-4.7575 18.813-2.9546 18.462-14.045 42.646-22.666 49.428-8.9908 7.0722-22.895 9.8984-43.269 8.7948-19.49-1.0556-27.997-4.2374-43.13-16.13l-8.6534-6.8007-23.525 5.8728c-41.574 10.379-62.906 13.242-93.137 12.5-23.132-.56742-28.634-.0692-30.419 2.7543-3.4624 5.4773-2.6118 12.835 2.1626 18.707 4.346 5.345 4.9666 5.4173 41.497 4.835 35.561-.56687 65.462-3.807 100.04-10.841 28.821-5.8626 35.812-5.3295 54.49 4.1551 25.372 12.884 40.038 17.264 58.442 17.452 14.703.15055 18.29-.77924 34.711-8.9981zm-64.305-40.647c24.989-11.797 35.817-39.16 26.999-68.226-4.3625-14.379-10.542-24.124-20.029-31.585-17.903-14.08-30.93-16.679-50.378-10.052-24.004 8.1792-39.067 30.25-39.067 57.244 0 24.622 5.7306 37.857 20.963 48.413 19.586 13.573 38.88 14.892 61.513 4.2071zm25.845-111.06c-6.1652-18.301-33.134-72.22-39.113-78.199-5.5729-5.5729-14.396-5.8957-19.575-.71626-5.9063 5.9063-3.0614 15.824 11.923 41.567 11.563 19.865 15.184 24.154 26.666 31.588 7.3071 4.7313 15.447 11.638 18.089 15.348 2.642 3.7104 5.2597 6.2902 5.817 5.7329.5573-.55732-1.1557-7.4518-3.8067-15.321zm88.94-17.852c4.0436-3.0345 8.346-8.7964 9.561-12.804 3.4965-11.534 4.7909-46.423 2.7313-73.62-1.5817-20.887-2.6905-25.761-6.7935-29.864-4.5723-4.5723-8.2698-4.4555-11.911-2.4351-7.7852 5.1203-5.6507 18.841-6.1489 66.126-.4892 49.173-.027 61.209 2.2985 59.835 1.6009-.94601 6.2193-4.2028 10.263-7.2372z" fill="#090106" stroke-width="2.2984"/><path d="m1217.6-602.81-46.705 26.807-15.786-19.329-3.7071-14.246 7.5082-39.194z" fill="#b8c8da"/><path d="m1130.8-619s-27.66-48.625-20.5-66.75c10.481-26.533 32.25-68.5 32.25-68.5s23.231-2.3189 31.227.29289c22.796 7.4464 58.68 44.127 58.68 44.127l6.0931 55.331s-6.319-36.832-33-50.25c-24.247-12.194-25-1.5-25-1.5l-44.5 27.25s-8.6572 12.064-9.25 20.25c-.8212 11.341 4 39.75 4 39.75z" fill="#3d8ded"/><path d="m1247.7-648.06-9.4354-3.7344c-1.9446-16.705-4.2258-30.531-7.2665-41.497-7.1821-25.903-47.455-61.081-74.334-60.836-24.464.2227-13.333 27.134-29.325 45.648-13.184 15.262-18.879 37.38-9.4742 55.221 5.4518 10.342 12.644 31.368 15.737 36.821l-3.9886 10.45c-10.783-12.198-14.13-28.979-20.234-41.261-10.98-22.094-5.3706-49.435 10.699-68.156 16.512-19.236 8.7827-49.881 34.132-50.17 31.204-.35477 76.961 37.095 86.687 66.747 4.6671 14.228 8.2166 27.963 6.8024 50.767z" fill="#090106"/><path d="m1218.2-603.61s-20.737 2.3468-27.684-9.6798c-6.6479-11.51.5934-33.265.2855-46.553-.3615-15.601-16.933-24.145-11.73-42.492l-7.478-33.777-23.104 32.716s-22.014 1.7782-35.886-1.591c-11.989-2.912 24.218 25.279 24.218 25.279 25.456 6.1872 23.334 32.704 23.334 32.704l-8.8388 35.886 18.562 35.179z" fill="#2929e9"/><path d="m1219.4-605.59c-11.932 9.6343-28.423 7.8658-41.901 20.076-9.0805 8.2261-15.2-11.048-18.265-22.911-3.8881-15.05 12.773-25.255 3.8979-39.88-2.375-3.625-9.5067-4.8928-8.1317-1.7678 7.25 17.5-11.276 29.674-6.4283 45.946 4.4751 15.022 15.927 39.321 28.57 30.056 12.093-8.8622 26.484-6.6209 36.825-11.306z" fill="#090106"/><path d="m1133.1-675.64c2.0141.53252 11.034-4.4287 9.071-5.1265-12.898-4.585-30.015-22.156-20.218-21.213 14.397 1.3857 19.458 8.3861 29.234.88389 8.4475-6.4829 13.494-18.097 15.667-25.986 2.7714-10.063 9.9373 15.642 7.844 28.638-.4327 2.6862 9.5629-1.3734 9.955-4.0659 2.338-16.053-12.643-46.365-20.451-34.704-5.0258 7.5068-8.7102 19.347-19.026 26.516-11.008 7.6501-16.635 2.2236-30.88-.17677-12.314-2.075-4.4065 29.097 18.804 35.234z" fill="#090106"/><path d="m1221.9-836.59c7.8621-6.9165 37.709-24.313 32.463-31.111-9.0659-24.114-53.975-12.695-55.351 2.8876-.065 15.075 11.569 38.181 22.888 28.224z" fill="#82ade1"/></g><g transform="translate(-45.856 .57512)"><use transform="matrix(0 -1 1 0 521.19 1618.61)" xlink:href="#e"/><use transform="matrix(-1 0 0 -1 2139.8 478.82)" xlink:href="#f"/><use transform="matrix(0 1 -1 0 1196.118 -1343.482)" xlink:href="#f"/><use transform="matrix(0 -1 1 0 943.5 1822.3)" xlink:href="#f"/><g id="e"><path d="m1311.3 152.65-18.774 18.773-.053 22.539 26.447 26.801h15.289l-41.726 40.609.016 45.227 18.742 19.449 45.928.10546 40.772-42.771-.068 16.195 26.705 26.518 22.744-.0371 18.703-18.703-.076-154.7z" fill="#333" fill-opacity=".5"/><path d="m1311.3 152.65-18.774 18.773-.053 22.539 26.447 26.801h15.289l-41.726 40.609.016 45.227 18.742 19.449 45.928.10546 40.772-42.771-.068 16.195 26.705 26.518 22.744-.0371 18.703-18.703-.076-154.7zm135.71 18.875.2304 118.02-10.672 10.422-15.75-15.75-.6875-75.584-10.035-9.9785-74.873-.17968-15.92-15.92 10.358-10.43zm-37.535 37.723-.078 30.629-22.65 22.717-.01-30.725-30.885-.01 22.672-22.605zm-30.301 30.174-.078 30.629-30.088 30.277-.01-30.725-30.885-.01 30.109-30.168z" fill="url(#c)"/><path d="m1465.9 152.65-154.65-.003-18.773 18.773-.053 22.539 26.448 26.801 15.288.00005-41.726 40.61.016 45.226 18.742 19.45 45.927.10505 40.771-42.771-.067 16.196 26.704 26.517 22.744-.0371 18.703-18.703z" fill="none" stroke="#f7f7f7" stroke-width="7.5591"/></g><g id="f"><path d="m1567.7 130.06-18.803 18.729v37.902l11.184 11.186h-60.258l-26.312 26.334v30.334l26.244 26.393h60.488l-11.367 11.273v37.766l18.938 18.885h15.137l109.34-109.45-109.35-109.36z" fill="#333" fill-opacity=".5"/><path d="m1567.7 130.06-18.803 18.729v37.902l11.184 11.186h-60.258l-26.312 26.334v30.334l26.244 26.393h60.488l-11.367 11.273v37.766l18.938 18.885h15.137l109.34-109.45-109.35-109.36zm14.764 26.389 83.404 82.555-83.291 83.615-14.914-.17578v-22.275l52.959-53.932-.041-14.152-52.814-53.07v-22.512zm7.8262 60.326 22.805 22.229-22.684 23.047h-30.176l21.102-23.053-21.096-22.215zm-45.27.006 22.805 22.229-22.682 23.049h-30.178l21.102-23.055-21.096-22.215z" fill="url(#b)"/><path d="m1692.3 239.41-109.35-109.35h-15.235l-18.803 18.728v37.903l11.185 11.185h-60.259l-26.311 26.334v30.334l26.244 26.393h60.488l-11.367 11.273v37.766l18.937 18.885h15.137z" fill="none" stroke="#f7f7f7" stroke-width="7.5591"/></g></g></svg>