<?xml version="1.0" encoding="UTF-8" standalone="no"?>
<!-- Created with Vectornator (http://vectornator.io/) -->

<svg
   stroke-miterlimit="10"
   style="clip-rule:evenodd;fill-rule:nonzero;stroke-linecap:round;stroke-linejoin:round"
   version="1.1"
   height="779.86365"
   width="534.38568"
   viewBox="0 0 2137.5427 3008.0455"
   xml:space="preserve"
   id="svg60"
   sodipodi:docname="Neon.svg"
   inkscape:version="1.3 (0e150ed6c4, 2023-07-21)"
   xmlns:inkscape="http://www.inkscape.org/namespaces/inkscape"
   xmlns:sodipodi="http://sodipodi.sourceforge.net/DTD/sodipodi-0.dtd"
   xmlns="http://www.w3.org/2000/svg"
   xmlns:svg="http://www.w3.org/2000/svg">&#10;  <sodipodi:namedview
   id="namedview60"
   pagecolor="#000000"
   bordercolor="#000000"
   borderopacity="0.25"
   inkscape:showpageshadow="2"
   inkscape:pageopacity="0.0"
   inkscape:pagecheckerboard="0"
   inkscape:deskcolor="#d1d1d1"
   inkscape:document-units="pt"
   inkscape:zoom="0.7652596"
   inkscape:cx="154.84941"
   inkscape:cy="444.29367"
   inkscape:window-width="1509"
   inkscape:window-height="1040"
   inkscape:window-x="219"
   inkscape:window-y="0"
   inkscape:window-maximized="0"
   inkscape:current-layer="layer1"
   showgrid="false"><inkscape:page
     x="0"
     y="0"
     width="2137.5427"
     height="3008.0454"
     id="page60"
     margin="0"
     bleed="0" /></sodipodi:namedview>&#10;<defs
   id="defs30">&#10;&#10;&#10;&#10;&#10;&#10;&#10;&#10;&#10;&#10;&#10;&#10;&#10;&#10;&#10;&#10;&#10;&#10;&#10;&#10;&#10;&#10;&#10;&#10;&#10;&#10;&#10;&#10;&#10;&#10;&#10;<filter
   style="color-interpolation-filters:sRGB"
   id="filter59"
   inkscape:label="Neon"
   x="-0.13581008"
   y="-0.2696507"
   width="1.2714181"
   height="1.5386412"><feMorphology
     radius="1"
     id="feMorphology59"
     operator="erode" /><feGaussianBlur
     stdDeviation="12"
     id="feGaussianBlur59" /><feBlend
     mode="color-dodge"
     id="feBlend59" /><feComposite
     id="feComposite59"
     operator="in" /><feBlend
     mode="color-dodge"
     id="feBlend60" /><feColorMatrix
     id="feColorMatrix59"
     values="1.5 0 0 0 0 0 1 0 0 0 0 0 9 0 0 0 0 0 1 0" /></filter></defs>&#10;&#10;<rect
   width="100%"
   height="103.835%"
   fill="#000000"
   id="rect1"
   x="-26.936514"
   y="-57.679253"
   style="stroke-width:1.01899"
   sodipodi:insensitive="true" />&#10;&#10;&#10;<g
   inkscape:groupmode="layer"
   id="layer1"
   inkscape:label="Lettering"
   style="clip-rule:evenodd;fill-rule:nonzero;stroke-linecap:round;stroke-linejoin:round">&#10;&#10;  <g
													id="g1"
													opacity=".1"
   inkscape:label="are"
   style="clip-rule:evenodd;fill-rule:nonzero;stroke-linecap:round;stroke-linejoin:round">

<animate id="a_are"
   attributeName="opacity"

values=".1;1"
dur="2s"
begin="a_you.begin+.25s"
   calcMode="discrete"
 />	
	
<path
     style="font-variation-settings:normal;clip-rule:evenodd;opacity:1;vector-effect:none;fill:none;fill-opacity:1;fill-rule:nonzero;stroke:#3897f1;stroke-width:28.5105;stroke-linecap:round;stroke-linejoin:round;stroke-miterlimit:10;stroke-dasharray:none;stroke-dashoffset:0;stroke-opacity:1;-inkscape-stroke:none;filter:url(#filter59);stop-color:#000000;stop-opacity:1"
     d="m 1711.6541,2741.5366 c -125.0641,-89.6734 -114.6208,237.9375 -37.0956,103.3645 54.2907,-94.2411 32.652,-78.8203 77.943,1.7732 43.2517,76.9645 -9.4348,-186.7194 63.355,-110.6624 42.7369,44.6551 86.7557,-2.2571 42.1935,47.1362 -68.9732,76.4507 -2.3849,98.1878 96.3679,54.806 88.8526,-39.0327 78.9222,-161.8719 3.1762,-98.7086 -116.9005,97.4813 35.7227,186.8918 118.0383,97.6138"
     id="path4"
     sodipodi:nodetypes="cssssssc"
     inkscape:label="are" />


</g>
<g
   id="g2"
   inkscape:label="you"
   opacity=".1"
   style="clip-rule:evenodd;fill-rule:nonzero;stroke-linecap:round;stroke-linejoin:round">
<animate   id="a_you"
   attributeName="opacity"
   values=".1;1;"
   begin="a_as.begin+.25s"
   dur="2s"
  calcMode="discrete"
 />	
  <path
     style="font-variation-settings:normal;clip-rule:evenodd;opacity:1;vector-effect:none;fill:none;fill-opacity:1;fill-rule:nonzero;stroke:#ffffff;stroke-width:28.5105;stroke-linecap:round;stroke-linejoin:round;stroke-miterlimit:10;stroke-dasharray:none;stroke-dashoffset:0;stroke-opacity:1;-inkscape-stroke:none;filter:url(#filter59);stop-color:#000000;stop-opacity:1"
     d="m 1131.2556,2812.5342 c -69.9158,188.0445 72.0466,145.3864 112.3067,28.4271 -54.1611,306.1912 -107.2092,275.477 -146.1953,165.9194 m 205.4352,-140.5355 c -32.7967,47.4198 -34.1703,115.365 43.8238,86.6658 57.4562,-40.351 42.2931,-123.7764 -3.6278,-102.2497 m 105.4376,-0.3121 c -51.4738,179.9795 84.9289,82.0293 75.237,9.4658 23.6382,-43.3813 -3.9077,102.3933 12.2519,98.8289"
     id="path3"
     sodipodi:nodetypes="ccccccccc"
     transform="matrix(0.93717678,0,0,0.92549636,92.754915,106.02339)"
     inkscape:label="you" />
</g>

<g
   id="g3"
   inkscape:label="as"
   opacity=".1"
   style="clip-rule:evenodd;fill-rule:nonzero;stroke-linecap:round;stroke-linejoin:round">
	
<animate id="a_as"
  attributeName="opacity"
values=".1;1"
dur="2s"
begin="a_come.begin+.25s"
  calcMode="discrete"
 />
  <path
     style="font-variation-settings:normal;clip-rule:evenodd;opacity:1;vector-effect:none;fill:none;fill-opacity:1;fill-rule:nonzero;stroke:#ffffff;stroke-width:28.5105;stroke-linecap:round;stroke-linejoin:round;stroke-miterlimit:10;stroke-dasharray:none;stroke-dashoffset:0;stroke-opacity:1;-inkscape-stroke:none;filter:url(#filter59);stop-color:#000000;stop-opacity:1"
     d="m 822.21144,2866.2052 c -71.40415,-94.051 -116.49953,125.552 -27.80375,133.3545 37.5555,-11.8951 58.78328,-178.2942 71.88728,-89.4002 18.63494,126.4146 44.14771,73.6631 96.81324,10.2544 34.17198,-41.1426 47.85559,-58.4609 47.85559,-58.4609 0,0 119.5684,180.6998 -33.19341,110.4419"
     id="path2"
     sodipodi:nodetypes="ccsscc"
     transform="matrix(0.92456202,0,0,0.92129723,77.508691,109.69672)"
 />

</g>

  <g
    id="g4"
    opacity=".1"
   inkscape:label="come">
<animate id="a_come"
  attributeName="opacity"
  values=".1;1"
  dur="2s"
  calcMode="discrete"
  begin="0s;a_are.end"
  repeatCount="1"
 />	

  <path
     style="font-variation-settings:normal;clip-rule:evenodd;opacity:1;vector-effect:none;fill:none;fill-opacity:1;fill-rule:nonzero;stroke:#ea60ff;stroke-width:28.5105;stroke-linecap:round;stroke-linejoin:round;stroke-miterlimit:10;stroke-dasharray:none;stroke-dashoffset:0;stroke-opacity:1;-inkscape-stroke:none;filter:url(#filter59);stop-color:#000000;stop-opacity:1"
     d="m 161.39995,2751.4527 c -112.834958,-66.6292 -153.6513663,96.0355 -67.642346,125.1774 51.811176,17.5548 62.801406,-34.1905 62.801406,-34.1905 m 83.92379,-85.4924 c -51.08736,10.3689 -66.87274,153.5643 52.61966,119.6829 92.20728,-26.1449 26.00909,-138.2658 -9.35612,-124.7628 m 109.67733,116.1181 c -34.91771,-308.097 72.39644,-33.7094 72.39644,-33.7094 21.57097,-54.1694 86.23957,-163.5527 69.60797,-41.5101 -11.77487,67.0674 17.79433,68.6081 85.58424,34.2663 63.87627,-32.3592 89.85704,-151.548 2.2949,-93.5857 -81.42639,53.9007 41.86925,192.6557 85.87182,100.0037"
     id="path1"
     sodipodi:nodetypes="csccsccccssc"
     inkscape:label="come" /></g>&#10; &#10; &#10;&#10;&#10;&#10;&#10;</g><g
   id="Him"
   style="display:inline;filter:url(#filter59)"
opacity=".1"								    transform="translate(46.171614,-73.56858)">&#10;
 <animate id="a_him"
   attributeName="opacity"
   values=".1;1"
   dur="4s"
   calcMode="discrete"
   repeatCount="indefinite" />
    <path
   d="m 503.587,650.74 c -15.825,-42.382 -46.424,-47.35 -81.73,5.547 -35.305,52.898 21.006,116.911 66.673,129.268 36.851,9.972 57.989,-19.841 15.057,-134.815 z"
   fill="none"
   filter="url(#Filter)"
   opacity="1"
   stroke="#ea60ff"
   stroke-linecap="round"
   stroke-linejoin="round"
   stroke-width="28.5105"
   id="path31" />&#10;&#10;&#10;&#10;    &#10;<path
   d="m 640.328,1254.07 c -7.564,-91.35 41.827,-142.38 -1.425,-145.67 -43.251,-3.28 -40.514,82.67 -67.888,73.92 -27.375,-8.76 -55.297,-95.82 -82.671,-81.58 -27.374,14.23 31.754,90.33 7.117,104.57 -24.637,14.23 -91.43,-38.87 -106.76,-3.83 -15.329,35.04 71.641,43.44 77.663,77.38 6.022,33.95 -54.668,31.02 -34.959,64.42 19.71,33.39 67.889,-21.9 94.716,3.83"
   fill="none"
   filter="url(#Filter_2)"
   opacity="1"
   stroke="#ea60ff"
   stroke-linecap="round"
   stroke-linejoin="round"
   stroke-width="28.5105"
   id="path32" />&#10;<path
   d="m 1178.35,1023.31 c 0,0 262.23,196.11 122.31,710.32"
   fill="none"
   filter="url(#Filter_3)"
   opacity="1"
   stroke="#ea60ff"
   stroke-linecap="round"
   stroke-linejoin="round"
   stroke-width="28.5105"
   id="path33" />&#10;<path
   d="m 221.274,887.702 c 1.082,35.236 3.471,71.894 19.847,66.009 16.376,-5.885 22.915,-82.765 37.9,-70.921 14.984,11.844 17.026,64.214 16.555,74.67"
   fill="none"
   filter="url(#Filter_4)"
   opacity="1"
   stroke="#ea60ff"
   stroke-linecap="round"
   stroke-linejoin="round"
   stroke-width="28.5105"
   id="path34" />&#10;<path
   d="M 741.18,1236.21"
   fill="none"
   filter="url(#Filter_5)"
   opacity="1"
   stroke="#3897f1"
   stroke-linecap="round"
   stroke-linejoin="round"
   stroke-width="28.5105"
   id="path35" />&#10;<path
   d="m 896.495,1411.38 c 70.889,-162.87 159.135,-351.97 230.005,-279.79 202.95,206.7 -162.54,476.2 -294.956,511.7 -40.009,10.73 -135.391,-57.43 -181.076,-153.6 -84.397,-36.15 -104.524,-105.49 -104.524,-105.49 0,0 127.653,2.19 130.167,-112.48 178.963,52.06 194.628,229.6 194.628,229.6"
   fill="none"
   filter="url(#Filter_6)"
   opacity="1"
   stroke="#ffffff"
   stroke-linecap="round"
   stroke-linejoin="round"
   stroke-width="28.5105"
   id="path36" />&#10;<path
   d="m 341.83096,890.1571 c 4.63468,-13.69809 174.05076,-19.87457 177.46933,-7.49421 3.41856,12.38037 5.8072,34.65487 6.38483,47.68902 0.57763,13.03517 -176.03615,33.95844 -180.95238,12.24839 -4.91532,-21.71005 -7.53737,-38.74612 -2.90178,-52.4432 z"
   fill="none"
   filter="url(#Filter_7)"
   opacity="1"
   stroke="#ffffff"
   stroke-linecap="round"
   stroke-linejoin="round"
   stroke-width="27.3765"
   id="path37" />&#10;<path
   d="m 245.951,846.537 c 46.833,-27.827 -62.169,-68.364 13.545,-65.708 36.877,1.294 -1.741,-48.378 -56.988,-98.516 C 147.26,632.174 130.931,551.314 224.332,498.112 317.733,444.909 458.946,364.215 411.624,280.44 395.444,251.797 297.481,120.152 209.651,170.261 c -87.83,50.11 -90.559,252.345 -23.195,258.677 65.594,6.166 186.506,-123.782 131.837,-160.724 -86.67,-58.567 -105.927,-34.071 -107.637,90.281"
   fill="none"
   filter="url(#Filter_8)"
   opacity="1"
   stroke="#ffffff"
   stroke-linecap="round"
   stroke-linejoin="round"
   stroke-width="28.5105"
   id="path38" />&#10;<path
   d="m 926.701,1665.1 c 0,0 -267.843,150.11 -319.532,285.81 -43,112.89 60.862,369.88 60.862,369.88"
   fill="none"
   filter="url(#Filter_9)"
   opacity="1"
   stroke="#ea60ff"
   stroke-linecap="round"
   stroke-linejoin="round"
   stroke-width="28.5105"
   id="path39" />&#10;<path
   d="m 892.923,2334.82 c -32.045,-109.66 -29.86,-424.17 78.976,-375.85 142.451,63.24 88.751,476.81 88.751,476.81 0,0 110.34,-17.47 291.25,-97.15"
   fill="none"
   filter="url(#Filter_10)"
   opacity="1"
   stroke="#ea60ff"
   stroke-linecap="round"
   stroke-linejoin="round"
   stroke-width="28.5105"
   id="path40" />&#10;</g>&#10;<g
   id="Both"
   style="filter:url(#filter59)"
				 transform="translate(46.171614,-73.56858)">&#10;&#10;&#10;

    <animate   id="flicker"
   attributeName="opacity"
   values=".8;1;0;1;.2;.8;1"
   dur=".3s"
   begin="2s;flicker.end+3s"
   repeatCount="1" />&#10;    <path
   d="M 683.606,611.442 C 637.111,511.178 660.12014,333.25827 710.65205,388.058 841.51228,529.9704 875.543,561.303 873.968,563.787 741.092,598.864 689.423,659.904 678.12,772.837 632.314,812.911 562.099,734.704 562.099,734.704"
   fill="none"
   filter="url(#Filter_11)"
   opacity="1"
   stroke="#ea60ff"
   stroke-linecap="round"
   stroke-linejoin="round"
   stroke-width="28.5105"
   id="path41"
   sodipodi:nodetypes="csccc" />&#10;<path
   d="M 884.416,671.00119 C 948.97716,492.2336 1041.47,565.655 1041.47,565.655 c 0,0 17.35,-182.92643 45.03,-182.00443 27.69,0.922 146.2747,211.56729 103.5547,291.98029"
   fill="none"
   filter="url(#Filter_12)"
   opacity="1"
   stroke="#ea60ff"
   stroke-linecap="round"
   stroke-linejoin="round"
   stroke-width="28.5105"
   id="path42"
   sodipodi:nodetypes="cccc"
   style="display:inline"
   inkscape:label="path42" />&#10;<path
   d="m 1048.1,610.246 c 160.1,53.466 48.88,207.906 283.18,201.875 63.21,-1.628 -281.58,453.179 -748.655,116.305 116.932,7.587 107.325,-65.827 107.325,-65.827 0,0 -102.135,45.654 -151.761,-44.623"
   fill="none"
   filter="url(#Filter_13)"
   opacity="1"
   stroke="#ea60ff"
   stroke-linecap="round"
   stroke-linejoin="round"
   stroke-width="28.5105"
   id="path43" />&#10;<path
   d="m 831.2332,801.39425 c 92.169,-20.031 86.472,-56.796 145.086,-45.503 39.938,7.695 55.982,30.261 51.932,56.548 -63.728,-21.186 -91.086,0.606 -91.086,0.606 v 0 0 l 43.557,26.734 c 0,0 12.355,23.491 22.265,38.391"
   fill="none"
   filter="url(#Filter_14)"
   opacity="1"
   stroke="#ea60ff"
   stroke-linecap="round"
   stroke-linejoin="round"
   stroke-width="28.5105"
   id="path44" />&#10;<path
   d="m 881.0009,819.6906 c -3.243,38.629 35.189,63.934 65.053,61.242"
   fill="none"
   filter="url(#Filter_15)"
   opacity="1"
   stroke="#ea60ff"
   stroke-linecap="round"
   stroke-linejoin="round"
   stroke-width="28.5105"
   id="path45"
   style="stroke-linecap:round" />&#10;<path
   d="m 1336.52,1769.25 c 291.72,196.46 143.69,-29.53 287.79,-117.17 254.32,100.67 39.82,642.68 -321.51,197.84"
   fill="none"
   filter="url(#Filter_16)"
   opacity="1"
   stroke="#ea60ff"
   stroke-linecap="round"
   stroke-linejoin="round"
   stroke-width="28.5105"
   id="path46" />&#10;<path
   d="m 974.052,1708.04 c 48.268,42.87 98.178,159.69 130.098,132.64 103.23,-87.48 171.43,-56.42 171.43,-56.42 0,0 -82.91,136.26 40.66,265.4 139.98,146.3 66.56,263.94 66.56,263.94"
   fill="none"
   filter="url(#Filter_17)"
   opacity="1"
   stroke="#ea60ff"
   stroke-linecap="round"
   stroke-linejoin="round"
   stroke-width="28.5105"
   id="path47" />&#10;<path
   d="m 786.25,1167.51 c -41.108,-44.2 83.7,-128.07 47.004,-19.03 -14.199,42.19 57.915,-33.79 78.106,-38.18 31.622,-6.88 107.77,45.35 -24.107,83.39 57.375,58.3 -19.051,102.75 -40.554,82.33 -21.504,-20.43 -11.124,-83.29 -26.936,-66.74 -47.62,49.82 -84.408,16.92 -73.819,-8.01 6.045,-14.23 11.877,-28.27 40.306,-33.76 z"
   fill="none"
   filter="url(#Filter_18)"
   opacity="1"
   stroke="#3897f1"
   stroke-linecap="round"
   stroke-linejoin="round"
   stroke-width="28.5105"
   id="path48" />&#10;<path
   d="m 645.944,2370.96 c -80.361,32.45 -228.131,-20.25 -203.331,2.52 40.905,37.55 81.628,123.7 295.075,129.85 -47.369,76.63 64.936,84.09 64.936,84.09 0,0 98.275,-62.44 94.817,-204.63"
   fill="none"
   filter="url(#Filter_19)"
   opacity="1"
   stroke="#ffffff"
   stroke-linecap="round"
   stroke-linejoin="round"
   stroke-width="28.5105"
   id="path49" />&#10;<path
   d="m 1077.46,2465.91 c -4.85,44.43 -20.2,88.11 12.4,98.46 87.16,27.66 77.17,-69.95 77.17,-69.95 0,0 23.68,73.6 66.3,93.91 42.61,20.3 221.92,9.15 176.85,-33.39 -45.07,-42.55 -97.74,-60.41 -124.6,-134.34"
   fill="none"
   filter="url(#Filter_20)"
   opacity="1"
   stroke="#ffffff"
   stroke-linecap="round"
   stroke-linejoin="round"
   stroke-width="28.5105"
   id="path50" />&#10;<path
   d="m 1582.88,1785.3 43.65,-51.27 30.53,71.09 32.23,-41.75"
   fill="none"
   filter="url(#Filter_21)"
   opacity="1"
   stroke="#ffffff"
   stroke-linecap="round"
   stroke-linejoin="round"
   stroke-width="28.5105"
			id="path51" />&#10;</g>&#10;&#10;&#10;

  <g
   id="Her"
   style="filter:url(#filter59)"
   transform="translate(46.171614,-73.56858)">&#10;<path
   d="m 760.881,1282.21 c 217.884,95.5071 268.309,207.49 198.719,286.72 -84.366,96.06 -407.678,239.47 -518.45,552.86"
   fill="none"
   filter="url(#Filter_22)"
   stroke="#ea60ff"
   stroke-linecap="round"
   stroke-linejoin="round"
   stroke-width="28.5105"
   id="path52"
						     sodipodi:nodetypes="ccc" />&#10;&#10;&#10;

    <animate id="a_her"
   attributeName="opacity"
   values=".1;1"
      dur="4s"
begin="2s"
   calcMode="discrete"
   repeatCount="indefinite" />&#10;    &#10;<path
   d="m 1136.26,1064.42 c 252.11,227.26 -71.16,279.82 53.45,415.64 127.29,138.73 86.07,253.89 86.07,253.89"
   fill="none"
   filter="url(#Filter_23)"
   opacity="1"
   stroke="#ea60ff"
   stroke-linecap="round"
   stroke-linejoin="round"
   stroke-width="28.5105"
   id="path53" />&#10;<path
   d="m 1271.7224,1265.4534 c 65.5984,23.8662 134.67,167.07 169.7,124.18 23.25,-28.47 145.7976,-391.2664 243.5076,-489.2514 28.93,-29.007 -143.78,63.407 -143.78,63.407 0,0 -77.1,280.761 -120.51,294.381 -43.4,13.61 -74.15,-172.27 -237.15,-208.42"
   fill="none"
   filter="url(#Filter_24)"
   opacity="1"
   stroke="#ffffff"
   stroke-linecap="round"
   stroke-linejoin="round"
   stroke-width="28.5105"
   id="path54"
   sodipodi:nodetypes="cccccc" />&#10;<path
   d="M 1416.49,970.696 1696.25,815.885"
   fill="none"
   filter="url(#Filter_25)"
   opacity="1"
   stroke="#ea60ff"
   stroke-linecap="round"
   stroke-linejoin="round"
   stroke-width="28.5105"
   id="path55" />&#10;<path
   d="m 1378.869,810.46465 c 0,0 37.8562,-64.26081 65.5262,-59.02081 46.4434,22.20372 -2.6477,90.71734 -43.2144,78.36841 -40.5666,-12.34893 -22.3118,-19.3476 -22.3118,-19.3476 z"
   fill="none"
   filter="url(#Filter_26)"
   opacity="1"
   stroke="#ea60ff"
   stroke-linecap="round"
   stroke-linejoin="round"
   stroke-width="28.5105"
   id="path56"
   transform="rotate(4.2327194,1432.4908,836.74445)"
   sodipodi:nodetypes="cczc" />&#10;<path
   d="m 675.512,2224.63 c -161.099,137.85 -283.707,29.35 -236.358,-38.74 73.325,-105.45 327.693,-76.41 538.9,118.42 211.206,194.84 224.876,-30 382.856,42.1"
   fill="none"
   filter="url(#Filter_27)"
   opacity="1"
   stroke="#ea60ff"
   stroke-linecap="round"
   stroke-linejoin="round"
   stroke-width="28.5105"
   id="path57" />&#10;<path
   d="m 1880.33,692.308 c 56.8,-32.118 46.14,-52.156 -14.16,-58.291 -3.62,-0.368 64.84,-25.277 46.12,-48.605 -21.35,-26.611 -50.41,-2.782 -85.75,19.673 -35.34,22.456 -141.7,-38.78 4.37,-151.008 191.59,-147.201 -88.6,-109.646 -129.19,-65.653 -54.76,59.341 53.68,218.436 -58.63,192.919 -111.11,-25.245 62.6,-258.962 -3.56,-295.773 -129.29,-71.939 -58.5,168.089 -80.55,129.626 -49.82,-86.918 -113.94,-102.96 -153.64,-54.169 -39.71,48.792 19.71,117.608 63.34,86.372 43.63,-31.236 -13.94,-54.239 -13.94,-54.239"
   fill="none"
   filter="url(#Filter_28)"
   opacity="1"
   stroke="#ffffff"
   stroke-linecap="round"
   stroke-linejoin="round"
   stroke-width="28.5105"
   id="path58" />&#10;<path
   d="m 1717.9,777.53 22.72,34.352 -8.04,-19.363 109.51,-66.926"
   fill="none"
   filter="url(#Filter_29)"
   opacity="1"
   stroke="#ffffff"
   stroke-linecap="round"
   stroke-linejoin="round"
   stroke-width="28.5105"
   id="path59" />&#10;<path
   d="m 768.208,1074.75 c -144.922,-0.2 -298.035,224.15 -267.268,312.02 20.221,57.75 383.173,75.81 316.189,204.13 -47.623,91.24 77.615,-35.23 100.968,-47.16 -33.108,-83.49 -223.145,-173.57 -285.998,-188.54 -0.45367,-87.9545 86.0607,-84.1143 86.0607,-84.1143"
   fill="none"
   filter="url(#Filter_30)"
   opacity="1"
   stroke="#ffffff"
   stroke-linecap="round"
   stroke-linejoin="round"
   stroke-width="28.5105"
   id="path60"
   sodipodi:nodetypes="cscccc" />&#10;</g>&#10;</svg>
