<svg xmlns="http://www.w3.org/2000/svg" width="700" height="120" viewBox="0 0 700 120">
  <metadata><?xpacket begin="﻿" id="W5M0MpCehiHzreSzNTczkc9d"?>
<x:xmpmeta xmlns:x="adobe:ns:meta/" x:xmptk="Adobe XMP Core 5.6-c142 79.160924, 2017/07/13-01:06:39        ">
   <rdf:RDF xmlns:rdf="http://www.w3.org/1999/02/22-rdf-syntax-ns#">
      <rdf:Description rdf:about=""/>
   </rdf:RDF>
</x:xmpmeta>
                                                                                                    
                                                                                                    
                                                                                                    
                                                                                                    
                                                                                                    
                                                                                                    
                                                                                                    
                                                                                                    
                                                                                                    
                                                                                                    
                                                                                                    
                                                                                                    
                                                                                                    
                                                                                                    
                                                                                                    
                                                                                                    
                                                                                                    
                                                                                                    
                                                                                                    
                                                                                                    
                           
<?xpacket end="w"?></metadata>
<defs>
    <style>
      .cls-1 {
        fill: #3cf;
      }

      .cls-1, .cls-2, .cls-3 {
        fill-rule: evenodd;
      }

      .cls-2 {
        fill: #ffa6b5;
      }

      .cls-3 {
        fill: #fff;
      }
    </style>
  </defs>
  <path class="cls-1" d="M62.1,29.014H42.043L45.051,12.6h58.658L100.7,29.014H80.771L80.588,30H61.913Z"/>
  <path id="Rectangle_1_copy" data-name="Rectangle 1 copy" class="cls-2" d="M322.521,49a8.306,8.306,0,0,0-5.124-1.311A10.538,10.538,0,0,0,312.129,49H293.816c5.016-9.164,15.531-14.6,26.213-14.6,8.012,0,18.82,3.093,20.488,14.6h-18ZM103.33,36.534h15.541l-1.754,9.024C121.253,39.417,127.9,34.529,138.3,34.4L135.534,49h-34.52ZM176.9,34.4c12.533,0,18.925,6.643,20.931,12.158l1.88-10.027h16.419L213.815,49H145.749C153.792,39.863,165.181,34.4,176.9,34.4Zm46.748,2.131h15.416c-0.626,3.008-1.128,5.891-1.88,9.149,4.011-5.389,11.281-11.405,23.564-11.28,13.887,0.078,19.558,6.688,21.331,14.6H221.333ZM62.1,29.014L58.388,49H77.063l3.708-19.986H62.1Z"/>
  <path id="Rectangle_1_copy_2" data-name="Rectangle 1 copy 2" class="cls-3" d="M281.93,63.857L281.167,68H264.758V67.993c1.88-10.278,0-18.174-11.531-18.174-11.656.125-17.171,7.9-18.925,17.547L234.186,68H217.8l3.716-20h60.318C283.226,53.124,282.849,58.906,281.93,63.857ZM210.285,68H193.826a18.075,18.075,0,0,0-.632-6.148c-1.629-6.517-7.019-12.157-16.92-12.157-11.983,0-20.9,8.769-23.919,18.306H135.8a45.38,45.38,0,0,1,10.853-20H214Zm-75.12-17.052h-0.752c-11.451,0-18.326,5.318-20.508,17.052H97.484L101.2,48h34.524ZM73.537,68H54.862l3.711-20H77.248ZM291.2,56.337A24.539,24.539,0,0,1,294.393,48H314.7A8.623,8.623,0,0,0,308,54.582c-0.627,4.387,3.886,6.768,10.027,8.648,4.427,1.265,8.982,2.577,12.585,4.769H294.2C291.634,65.108,290.381,61.329,291.2,56.337Zm33.214-1.253a6.243,6.243,0,0,0-.877-5.013A5.139,5.139,0,0,0,320.294,48h20.055a23.464,23.464,0,0,1,.235,7.084H324.416Z"/>
  <path id="Rectangle_1_copy_3" data-name="Rectangle 1 copy 3" class="cls-2" d="M284.547,87c0.029-.558.072-1.125,0.138-1.71H301.1a11.662,11.662,0,0,0-.05,1.71H284.547Zm-6.882,0H261.251l3.508-19.007q0.091-.5.171-0.993h16.421ZM234.3,67.367L230.674,87h-16.4l3.716-20h16.385C234.351,67.122,234.325,67.244,234.3,67.367ZM206.754,87H183.507a26.344,26.344,0,0,0,5.426-5.846A29.138,29.138,0,0,0,193.32,71.5a21.14,21.14,0,0,0,.539-4.5H210.47ZM151.583,71.127l-0.126.125c-0.884,5.011.055,11.362,3.982,15.748H135.406a38.251,38.251,0,0,1-.242-16.124q0.366-1.978.89-3.876h16.64A24.938,24.938,0,0,0,151.583,71.127ZM110.373,87H93.953l3.716-20h16.436c-0.088.407-.171,0.82-0.247,1.244ZM70.012,87H51.337l3.711-20H73.723ZM320.4,86.167c1.128-5.891-3.76-7.52-15.541-11.907-4.842-1.591-8.987-3.874-11.464-7.26h35.39c5.982,2.97,10.115,7.709,8.41,17.287A25.877,25.877,0,0,1,336.59,87H320.22A7.281,7.281,0,0,0,320.4,86.167Z"/>
  <path id="Rectangle_1_copy_9" data-name="Rectangle 1 copy 9" class="cls-1" d="M274.285,105.343H257.866L261.436,86H277.85Zm-47,0H210.865L214.459,86h16.4Zm-23.938,0H186.927l1.88-9.9c-5.89,8.021-15.792,12.032-25.443,12.032-16.026,0-25.562-9.067-28.189-21.474h19.447c2.7,3.607,7.147,6.183,13.881,6.183A23.86,23.86,0,0,0,184.7,86H206.94Zm-96.382,0H90.545L94.139,86h16.42Zm-40.356,0H47.933L51.522,86H70.2Zm240.261,2.131c-10.5,0-23.665-5.364-22.246-21.474h16.429c-0.306,6.781,5.419,8.189,8.449,8.189,5.139,0,10.152-3.384,10.9-8.022,0.012-.058.013-0.11,0.023-0.167h16.417C333.7,99.172,320.692,107.474,306.869,107.474Z"/>
  <path id="Phone" class="cls-3" d="M364.05,17.521c5.768,0.687,9.75,1.1,9.75,6.18,0,1.923-1.373,7.416-2.334,10.574l-16.2,58.365C352.789,101.429,351,101.7,344,102.8V105h33.646v-2.2c-7.141-.962-9.339-1.236-9.339-5.905,0-2.335,0-2.335,1.648-8.377l7.279-26.5c3.021,0.687,4.943,1.1,14.557,1.1,27.465,0,35.293-16.754,35.293-26.917,0-20.737-22.934-20.874-28.976-20.874H364.05v2.2Zm24.17,5.768c0.549-1.648,1.373-3.845,5.493-3.845,15.106,0,19.226,5.768,19.226,15.93,0,22.659-18.265,22.659-28.29,22.659a41.912,41.912,0,0,1-6.179-.687Zm92.561,65.643c-5.219,6.592-8.514,10.849-11.261,10.849a2.375,2.375,0,0,1-2.2-2.609c0-2.884,11.123-38.04,11.123-42.847,0-8.926-6.317-9.888-9.338-9.888-12.36,0-26.367,21.149-30.624,28.015l-0.275-.275,16.2-60.287-0.687-.687a196.568,196.568,0,0,1-21.561,3.708v2.2l3.571-.137c4.532,0.137,5.631,1.923,5.631,3.571,0,2.06-2.2,9.888-3.708,15.655L419.532,105h10.3c4.532-17.3,6.592-24.857,12.772-34.195,2.746-3.845,14.282-19.363,21.148-19.363a3.68,3.68,0,0,1,3.983,3.708c0,1.785-11.261,41.2-11.261,44.769,0,3.708,1.785,6.317,6.18,6.317,9.063,0,14.968-8.514,19.912-15.656Zm44.771-44.495c-20.05,0-40.375,22.11-40.375,42.3,0,11.4,6.18,19.776,20.737,19.776,21.012,0,39.826-24.857,39.826-41.748C545.74,55.7,541.482,44.438,525.552,44.438Zm-0.961,2.884c6.592,0,9.613,6.042,9.613,13.184,0,14.694-10.849,43.122-26.5,43.122-6.866,0-10.986-4.944-10.986-12.772C496.713,74.65,509.21,47.322,524.591,47.322Zm84.6,41.611c-5.082,6.454-8.515,10.849-11.261,10.849a2.282,2.282,0,0,1-2.2-2.335c0-4.12,10.987-38.04,10.987-43.945,0-5.768-3.159-9.064-9.476-9.064-11.4,0-24.033,19.089-30.487,29.251l-0.275-.275,8.789-28.7-0.412-.275c-7.415,1.511-14.831,2.884-22.247,4.257v2.2c7.416,0,8.789,1.511,8.789,3.571,0,2.884-9.2,35.019-13.458,50.537h10.3c5.63-18.677,7.415-24.582,13.732-34.058,4.944-7.69,13.6-19.5,20.188-19.5,2.609,0,3.433,1.923,3.433,4.395,0,5.493-10.162,39-10.162,42.3,0,3.983.274,8.1,6.592,8.1,7.415,0,12.222-6.317,19.088-15.518Zm22.249-18.539c5.081-12.222,14.42-22.8,21.835-22.8,3.434,0,4.807,2.609,4.807,5.493,0,1.1-.687,17.578-28.977,23.346Zm28.29,19.638c-6.867,5.631-12.635,10.3-20.05,10.3-5.768,0-12.909-3.159-12.909-12.5a36.736,36.736,0,0,1,1.373-8.377l3.845-.549c22.248-3.159,35.157-14.282,35.157-25.131,0-6.042-4.258-9.338-11.261-9.338-19.364,0-41.062,23.071-41.062,42.709,0,8.652,4.395,19.364,18.814,19.364,13.733,0,26.23-12.635,27.741-14.832Z"/>
</svg>
