<svg xmlns="http://www.w3.org/2000/svg" width="700" height="120" viewBox="0 0 700 120">
  <metadata><?xpacket begin="﻿" id="W5M0MpCehiHzreSzNTczkc9d"?>
<x:xmpmeta xmlns:x="adobe:ns:meta/" x:xmptk="Adobe XMP Core 5.6-c142 79.160924, 2017/07/13-01:06:39        ">
   <rdf:RDF xmlns:rdf="http://www.w3.org/1999/02/22-rdf-syntax-ns#">
      <rdf:Description rdf:about=""/>
   </rdf:RDF>
</x:xmpmeta>
                                                                                                    
                                                                                                    
                                                                                                    
                                                                                                    
                                                                                                    
                                                                                                    
                                                                                                    
                                                                                                    
                                                                                                    
                                                                                                    
                                                                                                    
                                                                                                    
                                                                                                    
                                                                                                    
                                                                                                    
                                                                                                    
                                                                                                    
                                                                                                    
                                                                                                    
                                                                                                    
                           
<?xpacket end="w"?></metadata>
<defs>
    <style>
      .cls-1 {
        fill: #162759;
        fill-rule: evenodd;
      }
    </style>
  </defs>
  <path id="Trans" class="cls-1" d="M631.986,78.908l-3.845.549a36.736,36.736,0,0,0-1.373,8.377c0,9.338,7.141,12.5,12.909,12.5,7.415,0,13.183-4.669,20.05-10.3l1.648,1.648c-1.511,2.2-14.008,14.832-27.741,14.832-14.419,0-18.814-10.712-18.814-19.364,0-19.638,21.7-42.709,41.062-42.709,7,0,11.261,3.3,11.261,9.338C667.143,64.625,654.234,75.749,631.986,78.908ZM653.272,47.6c-7.415,0-16.754,10.574-21.835,22.8L629.1,76.436c28.29-5.768,28.977-22.247,28.977-23.346C658.079,50.206,656.706,47.6,653.272,47.6Zm-61.25,58.64c-6.318,0-6.592-4.12-6.592-8.1,0-3.3,10.162-36.8,10.162-42.3,0-2.472-.824-4.395-3.433-4.395-6.592,0-15.244,11.81-20.188,19.5-6.317,9.476-8.1,15.381-13.732,34.058h-10.3C552.2,89.482,561.4,57.347,561.4,54.463c0-2.06-1.373-3.571-8.789-3.571V48.7c7.416-1.373,14.832-2.747,22.247-4.257l0.412,0.275-8.789,28.7,0.275,0.275c6.454-10.162,19.089-29.251,30.487-29.251,6.317,0,9.476,3.3,9.476,9.064,0,5.905-10.987,39.825-10.987,43.945a2.282,2.282,0,0,0,2.2,2.335c2.746,0,6.179-4.394,11.261-10.849l1.922,1.785C604.244,99.919,599.437,106.236,592.022,106.236Zm-86.108.275c-14.557,0-20.737-8.377-20.737-19.776,0-20.187,20.325-42.3,40.375-42.3,15.93,0,20.188,11.261,20.188,20.325C545.74,81.654,526.926,106.511,505.914,106.511ZM534.2,60.505c0-7.141-3.021-13.184-9.613-13.184-15.381,0-27.878,27.329-27.878,43.533,0,7.828,4.12,12.772,10.986,12.772C523.355,103.627,534.2,75.2,534.2,60.505Zm-71.55,45.731c-4.395,0-6.18-2.609-6.18-6.317,0-3.571,11.261-42.984,11.261-44.769a3.68,3.68,0,0,0-3.983-3.708c-6.866,0-18.4,15.518-21.148,19.363-6.18,9.338-8.24,16.891-12.772,34.195h-10.3L437.66,36.2c1.51-5.768,3.708-13.6,3.708-15.655,0-1.648-1.1-3.433-5.631-3.571l-3.571.137v-2.2A196.568,196.568,0,0,0,453.727,11.2l0.687,0.687-16.2,60.287,0.275,0.275c4.257-6.867,18.264-28.015,30.624-28.015,3.021,0,9.338.961,9.338,9.888,0,4.807-11.123,39.963-11.123,42.847a2.375,2.375,0,0,0,2.2,2.609c2.747,0,6.042-4.257,11.261-10.849l1.785,1.648C477.622,97.722,471.717,106.236,462.654,106.236ZM391.791,63.115c-9.614,0-11.536-.412-14.557-1.1l-7.279,26.5c-1.648,6.043-1.648,6.043-1.648,8.377,0,4.669,2.2,4.943,9.339,5.905V105H344v-2.2c7-1.1,8.789-1.374,11.261-10.163l16.2-58.365c0.961-3.159,2.334-8.652,2.334-10.574,0-5.081-3.982-5.493-9.75-6.18v-2.2h34.058c6.042,0,28.976.137,28.976,20.874C427.084,46.361,419.256,63.115,391.791,63.115Zm1.922-43.671c-4.12,0-4.944,2.2-5.493,3.845l-9.75,34.058a41.912,41.912,0,0,0,6.179.687c10.025,0,28.29,0,28.29-22.659C412.939,25.212,408.819,19.444,393.713,19.444Zm-69.3,35.64a6.243,6.243,0,0,0-.877-5.013c-1-1.5-2.883-2.381-6.142-2.381-5.514,0-8.773,3.509-9.4,6.893-0.627,4.387,3.886,6.768,10.027,8.648,10.528,3.008,21.808,6.267,19.176,21.056-2.381,14.163-15.917,23.187-30.331,23.187-10.653,0-24.064-5.515-22.184-22.184H301.1c-0.752,7.395,5.264,8.9,8.4,8.9,5.139,0,10.152-3.384,10.9-8.022,1.128-5.891-3.76-7.52-15.541-11.907-8.774-2.883-15.291-8.021-13.662-17.923C293.709,42.8,306.744,34.4,320.029,34.4c9.275,0,22.31,4.136,20.555,20.68H324.416Zm-50.131,50.259H257.866l6.893-37.35c1.88-10.278,0-18.174-11.531-18.174-11.656.125-17.171,7.9-18.925,17.547l-7.019,37.976H210.865l12.784-68.809h15.416c-0.626,3.008-1.128,5.891-1.88,9.149,4.011-5.389,11.281-11.405,23.564-11.28,22.435,0.125,23.437,17.3,21.181,29.454Zm-87.358,0,1.88-9.9c-5.89,8.021-15.792,12.032-25.443,12.032-22.059,0-31.835-17.171-28.2-36.6C139.175,49.193,157.6,34.4,176.9,34.4c12.533,0,18.925,6.643,20.931,12.158l1.88-10.027h16.419l-12.785,68.809H186.927Zm6.267-43.491c-1.629-6.517-7.019-12.157-16.92-12.157-13.286,0-22.811,10.779-24.691,21.432l-0.126.125c-1.5,8.523,2.256,20.931,17.046,20.931a24.361,24.361,0,0,0,20.43-11.03A29.138,29.138,0,0,0,193.32,71.5,19.314,19.314,0,0,0,193.194,61.852Zm-58.781-10.9c-11.531,0-18.425,5.389-20.555,17.3l-6.894,37.1H90.545L103.33,36.534h15.541l-1.754,9.024C121.253,39.417,127.9,34.529,138.3,34.4l-3.133,16.544h-0.752ZM80.771,29.014L66.608,105.343H47.933L62.1,29.014H42.043L45.051,12.6h58.658L100.7,29.014H80.771Z"/>
</svg>
