<?xml version="1.0" encoding="UTF-8" standalone="no"?>
<!DOCTYPE svg PUBLIC "-//W3C//DTD SVG 1.1//EN" "http://www.w3.org/Graphics/SVG/1.1/DTD/svg11.dtd">
<svg width="100%" height="100%" viewBox="0 0 808 600" version="1.1" xmlns="http://www.w3.org/2000/svg" xmlns:xlink="http://www.w3.org/1999/xlink" xml:space="preserve" xmlns:serif="http://www.serif.com/" style="fill-rule:evenodd;clip-rule:evenodd;stroke-linejoin:round;stroke-miterlimit:2;">
    <rect id="Artboard2" x="0" y="0" width="807.911" height="600" style="fill:none;"/>
    <g>
        <g>
            <path d="M425.384,314.286l7.143,-0l0,-7.143l7.143,-0l-0,-28.572l-14.286,0l0,-21.428l-57.143,-0l0,85.714l14.286,0l0,-14.286l28.571,0l0,-7.142l14.286,-0l0,-7.143Z" style="fill:#ffd7a7;"/>
            <path d="M432.527,335.714l-14.286,0l0,7.143l21.429,0l-0,-21.428l-7.143,-0l0,14.285Z" style="fill:#ffd7a7;"/>
        </g>
        <g>
            <path d="M439.67,264.286l-0,-7.143l-7.143,-0l0,14.286l7.143,-0l-0,-0l7.143,-0l-0,-7.143l-7.143,-0Z" style="fill:#fff9f2;"/>
            <path d="M425.384,250l-64.286,-0l0,100l7.143,-0l0,-92.857l57.143,-0l0,-7.143Z" style="fill:#fff9f2;"/>
            <path d="M411.098,350l35.715,-0l-0,-35.714l-7.143,-0l-0,28.571l-28.572,0l0,7.143Z" style="fill:#fff9f2;"/>
            <rect x="439.67" y="278.571" width="7.143" height="14.286" style="fill:#fff9f2;"/>
        </g>
        <g>
            <path d="M432.527,250l0,-7.143l-7.143,0l0,28.572l7.143,-0l0,-14.286l7.143,-0l-0,-7.143l-7.143,-0Z" style="fill:#b5788e;"/>
            <rect x="446.813" y="264.286" width="7.143" height="7.143" style="fill:#b5788e;"/>
            <rect x="439.67" y="257.143" width="7.143" height="7.143" style="fill:#b5788e;"/>
        </g>
        <g>
            <rect x="432.527" y="292.857" width="7.143" height="14.286" style="fill:#e56b6f;"/>
            <rect x="425.384" y="307.143" width="7.143" height="7.143" style="fill:#e56b6f;"/>
            <rect x="411.098" y="314.286" width="14.286" height="7.143" style="fill:#e56b6f;"/>
            <path d="M382.527,285.714l21.429,0l-0,-21.428l-14.286,-0l-0,7.143l-7.143,-0l0,14.285Z" style="fill:#e56b6f;"/>
            <path d="M382.527,314.286l0,-7.143l-7.143,-0l0,21.428l21.429,0l-0,-7.142l-7.143,-0l-0,-7.143l-7.143,-0Z" style="fill:#e56b6f;"/>
        </g>
        <g>
            <g>
                <rect x="375.384" y="300" width="7.143" height="7.143" style="fill:#ffaa5a;"/>
                <rect x="382.527" y="307.143" width="7.143" height="7.143" style="fill:#ffaa5a;"/>
                <rect x="389.67" y="314.286" width="7.143" height="7.143" style="fill:#ffaa5a;"/>
                <rect x="396.813" y="321.429" width="7.143" height="7.143" style="fill:#ffaa5a;"/>
            </g>
            <path d="M425.384,314.286l0,-7.143l-7.143,-0l0,-7.143l7.143,-0l0,7.143l7.143,-0l0,-14.286l-21.429,0l0,21.429l14.286,-0Z" style="fill:#ffaa5a;"/>
        </g>
        <g>
            <path d="M375.384,335.714l21.429,0l-0,-7.143l-21.429,0l0,7.143Z" style="fill:#83254f;"/>
            <path d="M353.956,357.143l14.285,-0l0,-7.143l-7.143,-0l0,-100l64.286,-0l0,-7.143l-71.428,0l-0,114.286Z" style="fill:#83254f;"/>
            <path d="M453.956,357.143l-0,-42.857l-7.143,-0l-0,35.714l-35.715,-0l0,7.143l42.858,-0Z" style="fill:#83254f;"/>
            <path d="M453.956,271.429l-28.572,-0l0,7.142l21.429,0l-0,14.286l7.143,0l-0,-21.428Z" style="fill:#83254f;"/>
            <rect x="389.67" y="271.429" width="7.143" height="7.143" style="fill:#83254f;"/>
            <rect x="403.956" y="271.429" width="7.143" height="14.286" style="fill:#83254f;"/>
            <rect x="389.67" y="285.714" width="14.286" height="7.143" style="fill:#83254f;"/>
        </g>
    </g>
</svg>
